<svg width="134" height="201" viewBox="0 0 134 201" fill="none" xmlns="http://www.w3.org/2000/svg">
<g clip-path="url(#clip0_4_8)">
<path d="M67.9302 198.038C67.9302 198.553 67.5137 198.97 67 198.97C66.4863 198.97 66.0698 198.553 66.0698 198.038C66.0698 197.523 66.4863 197.106 67 197.106C67.5137 197.106 67.9302 197.523 67.9302 198.038Z" fill="#171717"/>
<path d="M68.2626 188.74C68.2626 189.438 67.6973 190.005 67 190.005C66.3027 190.005 65.7374 189.438 65.7374 188.74C65.7374 188.041 66.3027 187.475 67 187.475C67.6973 187.475 68.2626 188.041 68.2626 188.74Z" fill="#171717"/>
<path d="M68.5266 179.441C68.5266 180.286 67.8431 180.971 67 180.971C66.1569 180.971 65.4734 180.286 65.4734 179.441C65.4734 178.596 66.1569 177.912 67 177.912C67.8431 177.912 68.5266 178.596 68.5266 179.441Z" fill="#171717"/>
<path d="M68.743 170.143C68.743 171.108 67.9627 171.889 67 171.889C66.0373 171.889 65.257 171.108 65.257 170.143C65.257 169.178 66.0373 168.396 67 168.396C67.9627 168.396 68.743 169.178 68.743 170.143Z" fill="#171717"/>
<path d="M68.9234 160.845C68.9234 161.909 68.0623 162.772 67 162.772C65.9377 162.772 65.0766 161.909 65.0766 160.845C65.0766 159.78 65.9377 158.917 67 158.917C68.0623 158.917 68.9234 159.78 68.9234 160.845Z" fill="#171717"/>
<path d="M69.0712 151.546C69.0712 152.692 68.1439 153.622 67 153.622C65.8561 153.622 64.9288 152.692 64.9288 151.546C64.9288 150.4 65.8561 149.471 67 149.471C68.1439 149.471 69.0712 150.4 69.0712 151.546Z" fill="#171717"/>
<path d="M69.1874 142.248C69.1874 143.458 68.2081 144.44 67 144.44C65.7919 144.44 64.8126 143.458 64.8126 142.248C64.8126 141.037 65.7919 140.056 67 140.056C68.2081 140.056 69.1874 141.037 69.1874 142.248Z" fill="#171717"/>
<path d="M69.2758 132.949C69.2758 134.209 68.2569 135.23 67 135.23C65.7431 135.23 64.7242 134.209 64.7242 132.949C64.7242 131.69 65.7431 130.669 67 130.669C68.2569 130.669 69.2758 131.69 69.2758 132.949Z" fill="#171717"/>
<path d="M69.3369 123.651C69.3369 124.944 68.2906 125.993 67 125.993C65.7095 125.993 64.6632 124.944 64.6632 123.651C64.6632 122.358 65.7095 121.309 67 121.309C68.2906 121.309 69.3369 122.358 69.3369 123.651Z" fill="#171717"/>
<path d="M69.3721 114.353C69.3721 115.665 68.3101 116.73 67 116.73C65.6899 116.73 64.6279 115.665 64.6279 114.353C64.6279 113.04 65.6899 111.976 67 111.976C68.3101 111.976 69.3721 113.04 69.3721 114.353Z" fill="#171717"/>
<path d="M69.384 105.055C69.384 106.374 68.3166 107.443 67 107.443C65.6833 107.443 64.616 106.374 64.616 105.055C64.616 103.735 65.6833 102.665 67 102.665C68.3166 102.665 69.384 103.735 69.384 105.055Z" fill="#171717"/>
<path d="M69.3746 95.7554C69.3746 97.07 68.3114 98.1355 67 98.1355C65.6886 98.1355 64.6254 97.07 64.6254 95.7554C64.6254 94.4418 65.6886 93.3764 67 93.3764C68.3114 93.3764 69.3746 94.4418 69.3746 95.7554Z" fill="#171717"/>
<path d="M69.3439 86.4573C69.3439 87.7545 68.2945 88.8064 67 88.8064C65.7055 88.8064 64.6561 87.7545 64.6561 86.4573C64.6561 85.16 65.7055 84.1082 67 84.1082C68.2945 84.1082 69.3439 85.16 69.3439 86.4573Z" fill="#171717"/>
<path d="M69.29 77.1591C69.29 78.4264 68.2648 79.4536 67 79.4536C65.7352 79.4536 64.71 78.4264 64.71 77.1591C64.71 75.8918 65.7352 74.8645 67 74.8645C68.2648 74.8645 69.29 75.8918 69.29 77.1591Z" fill="#171717"/>
<path d="M69.2109 67.8609C69.2109 69.0836 68.221 70.0764 67 70.0764C65.7789 70.0764 64.7891 69.0836 64.7891 67.8609C64.7891 66.6373 65.7789 65.6455 67 65.6455C68.221 65.6455 69.2109 66.6373 69.2109 67.8609Z" fill="#171717"/>
<path d="M69.1044 58.5618C69.1044 59.7264 68.1622 60.6709 67 60.6709C65.8377 60.6709 64.8956 59.7264 64.8956 58.5618C64.8956 57.3973 65.8377 56.4536 67 56.4536C68.1622 56.4536 69.1044 57.3973 69.1044 58.5618Z" fill="#171717"/>
<path d="M68.9698 49.2642C68.9698 50.3536 68.088 51.2372 67.0001 51.2372C65.9124 51.2372 65.0306 50.3536 65.0306 49.2642C65.0306 48.1739 65.9124 47.2904 67.0001 47.2904C68.088 47.2904 68.9698 48.1739 68.9698 49.2642Z" fill="#171717"/>
<path d="M68.8037 39.9656C68.8037 40.9636 67.9961 41.7723 66.9999 41.7723C66.0037 41.7723 65.1961 40.9636 65.1961 39.9656C65.1961 38.9667 66.0037 38.1579 66.9999 38.1579C67.9961 38.1579 68.8037 38.9667 68.8037 39.9656Z" fill="#171717"/>
<path d="M68.6057 30.6673C68.6057 31.5551 67.8868 32.2766 66.9999 32.2766C66.1131 32.2766 65.3943 31.5551 65.3943 30.6673C65.3943 29.7786 66.1131 29.0581 66.9999 29.0581C67.8868 29.0581 68.6057 29.7786 68.6057 30.6673Z" fill="#171717"/>
<path d="M68.3712 21.367C68.3712 22.1267 67.7571 22.7424 66.9998 22.7424C66.2422 22.7424 65.6282 22.1267 65.6282 21.367C65.6282 20.6084 66.2422 19.9938 66.9998 19.9938C67.7571 19.9938 68.3712 20.6084 68.3712 21.367Z" fill="#171717"/>
<path d="M68.09 12.0702C68.09 12.6737 67.6021 13.1632 67.0001 13.1632C66.3981 13.1632 65.9101 12.6737 65.9101 12.0702C65.9101 11.4679 66.3981 10.9784 67.0001 10.9784C67.6021 10.9784 68.09 11.4679 68.09 12.0702Z" fill="#171717"/>
<path d="M67.7403 2.77125C67.7403 3.18159 67.4088 3.51277 66.9999 3.51277C66.591 3.51277 66.2595 3.18159 66.2595 2.77125C66.2595 2.36214 66.591 2.02973 66.9999 2.02973C67.4088 2.02973 67.7403 2.36214 67.7403 2.77125Z" fill="#171717"/>
<path d="M60.7881 198.038C60.7881 198.507 60.409 198.887 59.9412 198.887C59.4734 198.887 59.0942 198.507 59.0942 198.038C59.0942 197.569 59.4734 197.189 59.9412 197.189C60.409 197.189 60.7881 197.569 60.7881 198.038Z" fill="#171717"/>
<path d="M61.0905 188.74C61.0905 189.376 60.5759 189.891 59.9412 189.891C59.3064 189.891 58.7918 189.376 58.7918 188.74C58.7918 188.104 59.3064 187.588 59.9412 187.588C60.5759 187.588 61.0905 188.104 61.0905 188.74Z" fill="#171717"/>
<path d="M61.3308 179.441C61.3308 180.21 60.7086 180.834 59.9412 180.834C59.1738 180.834 58.5516 180.21 58.5516 179.441C58.5516 178.672 59.1738 178.049 59.9412 178.049C60.7086 178.049 61.3308 178.672 61.3308 179.441Z" fill="#171717"/>
<path d="M61.5281 170.143C61.5281 171.021 60.8177 171.733 59.9412 171.733C59.0647 171.733 58.3542 171.021 58.3542 170.143C58.3542 169.265 59.0647 168.553 59.9412 168.553C60.8177 168.553 61.5281 169.265 61.5281 170.143Z" fill="#171717"/>
<path d="M61.6925 160.845C61.6925 161.814 60.9084 162.599 59.9412 162.599C58.974 162.599 58.1899 161.814 58.1899 160.845C58.1899 159.875 58.974 159.09 59.9412 159.09C60.9084 159.09 61.6925 159.875 61.6925 160.845Z" fill="#171717"/>
<path d="M61.8269 151.546C61.8269 152.59 60.9826 153.436 59.9412 153.436C58.8998 153.436 58.0555 152.59 58.0555 151.546C58.0555 150.503 58.8998 149.657 59.9412 149.657C60.9826 149.657 61.8269 150.503 61.8269 151.546Z" fill="#171717"/>
<path d="M61.9329 142.248C61.9329 143.35 61.0412 144.244 59.9412 144.244C58.8412 144.244 57.9495 143.35 57.9495 142.248C57.9495 141.145 58.8412 140.252 59.9412 140.252C61.0412 140.252 61.9329 141.145 61.9329 142.248Z" fill="#171717"/>
<path d="M62.013 132.949C62.013 134.096 61.0854 135.025 59.9412 135.025C58.7969 135.025 57.8693 134.096 57.8693 132.949C57.8693 131.803 58.7969 130.873 59.9412 130.873C61.0854 130.873 62.013 131.803 62.013 132.949Z" fill="#171717"/>
<path d="M62.0689 123.651C62.0689 124.828 61.1163 125.783 59.9412 125.783C58.7661 125.783 57.8135 124.828 57.8135 123.651C57.8135 122.473 58.7661 121.519 59.9412 121.519C61.1163 121.519 62.0689 122.473 62.0689 123.651Z" fill="#171717"/>
<path d="M62.1009 114.353C62.1009 115.548 61.1339 116.517 59.9412 116.517C58.7485 116.517 57.7815 115.548 57.7815 114.353C57.7815 113.157 58.7485 112.188 59.9412 112.188C61.1339 112.188 62.1009 113.157 62.1009 114.353Z" fill="#171717"/>
<path d="M62.1118 105.055C62.1118 106.255 61.14 107.229 59.9412 107.229C58.7424 107.229 57.7706 106.255 57.7706 105.055C57.7706 103.853 58.7424 102.879 59.9412 102.879C61.14 102.879 62.1118 103.853 62.1118 105.055Z" fill="#171717"/>
<path d="M62.1032 95.7554C62.1032 96.9518 61.1352 97.9218 59.9412 97.9218C58.7471 97.9218 57.7792 96.9518 57.7792 95.7554C57.7792 94.5591 58.7471 93.5891 59.9412 93.5891C61.1352 93.5891 62.1032 94.5591 62.1032 95.7554Z" fill="#171717"/>
<path d="M62.0752 86.4573C62.0752 87.6382 61.1198 88.5955 59.9412 88.5955C58.7626 88.5955 57.8072 87.6382 57.8072 86.4573C57.8072 85.2764 58.7626 84.3191 59.9412 84.3191C61.1198 84.3191 62.0752 85.2764 62.0752 86.4573Z" fill="#171717"/>
<path d="M62.0263 77.1591C62.0263 78.3127 61.0927 79.2482 59.9412 79.2482C58.7895 79.2482 57.856 78.3127 57.856 77.1591C57.856 76.0045 58.7895 75.0691 59.9412 75.0691C61.0927 75.0691 62.0263 76.0045 62.0263 77.1591Z" fill="#171717"/>
<path d="M61.954 67.8609C61.954 68.9745 61.0528 69.8773 59.9412 69.8773C58.8296 69.8773 57.9284 68.9745 57.9284 67.8609C57.9284 66.7464 58.8296 65.8436 59.9412 65.8436C61.0528 65.8436 61.954 66.7464 61.954 67.8609Z" fill="#171717"/>
<path d="M61.8574 58.5618C61.8574 59.6227 60.9994 60.4818 59.9412 60.4818C58.8829 60.4818 58.025 59.6227 58.025 58.5618C58.025 57.5018 58.8829 56.6418 59.9412 56.6418C60.9994 56.6418 61.8574 57.5018 61.8574 58.5618Z" fill="#171717"/>
<path d="M61.7341 49.2627C61.7341 50.256 60.9312 51.0606 59.9409 51.0606C58.9507 51.0606 58.1477 50.256 58.1477 49.2627C58.1477 48.2713 58.9507 47.4667 59.9409 47.4667C60.9312 47.4667 61.7341 48.2713 61.7341 49.2627Z" fill="#171717"/>
<path d="M61.5838 39.9661C61.5838 40.8745 60.8484 41.6108 59.9414 41.6108C59.0342 41.6108 58.2989 40.8745 58.2989 39.9661C58.2989 39.0567 59.0342 38.3195 59.9414 38.3195C60.8484 38.3195 61.5838 39.0567 61.5838 39.9661Z" fill="#171717"/>
<path d="M61.4031 30.6668C61.4031 31.476 60.7487 32.1318 59.9412 32.1318C59.1338 32.1318 58.4792 31.476 58.4792 30.6668C58.4792 29.8586 59.1338 29.2018 59.9412 29.2018C60.7487 29.2018 61.4031 29.8586 61.4031 30.6668Z" fill="#171717"/>
<path d="M61.1893 21.3673C61.1893 22.059 60.6304 22.6189 59.9409 22.6189C59.2515 22.6189 58.6927 22.059 58.6927 21.3673C58.6927 20.6768 59.2515 20.1168 59.9409 20.1168C60.6304 20.1168 61.1893 20.6768 61.1893 21.3673Z" fill="#171717"/>
<path d="M60.9333 12.0698C60.9333 12.6195 60.4891 13.0646 59.9411 13.0646C59.3932 13.0646 58.9489 12.6195 58.9489 12.0698C58.9489 11.5213 59.3932 11.0762 59.9411 11.0762C60.4891 11.0762 60.9333 11.5213 60.9333 12.0698Z" fill="#171717"/>
<path d="M60.6154 2.77193C60.6154 3.1444 60.3135 3.44748 59.9412 3.44748C59.5689 3.44748 59.2671 3.1444 59.2671 2.77193C59.2671 2.39947 59.5689 2.09639 59.9412 2.09639C60.3135 2.09639 60.6154 2.39947 60.6154 2.77193Z" fill="#171717"/>
<path d="M53.6461 198.038C53.6461 198.461 53.3042 198.803 52.8824 198.803C52.4606 198.803 52.1186 198.461 52.1186 198.038C52.1186 197.615 52.4606 197.273 52.8824 197.273C53.3042 197.273 53.6461 197.615 53.6461 198.038Z" fill="#171717"/>
<path d="M53.9185 188.74C53.9185 189.313 53.4546 189.778 52.8824 189.778C52.3101 189.778 51.8463 189.313 51.8463 188.74C51.8463 188.166 52.3101 187.702 52.8824 187.702C53.4546 187.702 53.9185 188.166 53.9185 188.74Z" fill="#171717"/>
<path d="M54.1349 179.441C54.1349 180.134 53.5742 180.696 52.8824 180.696C52.1906 180.696 51.6298 180.134 51.6298 179.441C51.6298 178.748 52.1906 178.186 52.8824 178.186C53.5742 178.186 54.1349 178.748 54.1349 179.441Z" fill="#171717"/>
<path d="M54.3133 170.143C54.3133 170.935 53.6727 171.577 52.8824 171.577C52.0921 171.577 51.4514 170.935 51.4514 170.143C51.4514 169.351 52.0921 168.709 52.8824 168.709C53.6727 168.709 54.3133 169.351 54.3133 170.143Z" fill="#171717"/>
<path d="M54.4615 160.845C54.4615 161.718 53.7545 162.427 52.8824 162.427C52.0102 162.427 51.3032 161.718 51.3032 160.845C51.3032 159.971 52.0102 159.262 52.8824 159.262C53.7545 159.262 54.4615 159.971 54.4615 160.845Z" fill="#171717"/>
<path d="M54.5825 151.546C54.5826 152.487 53.8213 153.25 52.8824 153.25C51.9434 153.25 51.1823 152.487 51.1823 151.546C51.1823 150.605 51.9434 149.842 52.8824 149.842C53.8213 149.842 54.5825 150.605 54.5825 151.546Z" fill="#171717"/>
<path d="M54.6784 142.248C54.6784 143.242 53.8743 144.047 52.8824 144.047C51.8904 144.047 51.0864 143.242 51.0864 142.248C51.0864 141.254 51.8904 140.448 52.8824 140.448C53.8743 140.448 54.6784 141.254 54.6784 142.248Z" fill="#171717"/>
<path d="M54.7503 132.949C54.7503 133.983 53.914 134.821 52.8824 134.821C51.8507 134.821 51.0144 133.983 51.0144 132.949C51.0144 131.916 51.8507 131.078 52.8824 131.078C53.914 131.078 54.7503 131.916 54.7503 132.949Z" fill="#171717"/>
<path d="M54.801 123.651C54.801 124.713 53.9421 125.574 52.8824 125.574C51.8227 125.574 50.9637 124.713 50.9637 123.651C50.9637 122.589 51.8227 121.728 52.8824 121.728C53.9421 121.728 54.801 122.589 54.801 123.651Z" fill="#171717"/>
<path d="M54.8295 114.353C54.8295 115.43 53.9577 116.304 52.8824 116.304C51.807 116.304 50.9352 115.43 50.9352 114.353C50.9352 113.275 51.807 112.401 52.8824 112.401C53.9577 112.401 54.8295 113.275 54.8295 114.353Z" fill="#171717"/>
<path d="M54.8396 105.055C54.8396 106.137 53.9633 107.015 52.8824 107.015C51.8014 107.015 50.9251 106.137 50.9251 105.055C50.9251 103.971 51.8014 103.093 52.8824 103.093C53.9633 103.093 54.8396 103.971 54.8396 105.055Z" fill="#171717"/>
<path d="M54.8318 95.7555C54.8318 96.8346 53.959 97.7091 52.8824 97.7091C51.8057 97.7091 50.933 96.8346 50.933 95.7555C50.933 94.6773 51.8057 93.8027 52.8824 93.8027C53.959 93.8027 54.8318 94.6773 54.8318 95.7555Z" fill="#171717"/>
<path d="M54.8064 86.4573C54.8064 87.5218 53.9449 88.3855 52.8824 88.3855C51.8198 88.3855 50.9583 87.5218 50.9583 86.4573C50.9583 85.3927 51.8198 84.5291 52.8824 84.5291C53.9449 84.5291 54.8064 85.3927 54.8064 86.4573Z" fill="#171717"/>
<path d="M54.7626 77.1591C54.7626 78.1991 53.9208 79.0427 52.8824 79.0427C51.8439 79.0427 51.0022 78.1991 51.0022 77.1591C51.0022 76.1182 51.8439 75.2745 52.8824 75.2745C53.9208 75.2745 54.7626 76.1182 54.7626 77.1591Z" fill="#171717"/>
<path d="M54.6971 67.8609C54.6971 68.8645 53.8846 69.6791 52.8824 69.6791C51.8801 69.6791 51.0677 68.8645 51.0677 67.8609C51.0677 66.8564 51.8801 66.0418 52.8824 66.0418C53.8846 66.0418 54.6971 66.8564 54.6971 67.8609Z" fill="#171717"/>
<path d="M54.6102 58.5618C54.6102 59.5182 53.8366 60.2936 52.8824 60.2936C51.9281 60.2936 51.1545 59.5182 51.1545 58.5618C51.1545 57.6055 51.9281 56.8309 52.8824 56.8309C53.8366 56.8309 54.6102 57.6055 54.6102 58.5618Z" fill="#171717"/>
<path d="M54.4988 49.2635C54.4988 50.1572 53.775 50.8831 52.8821 50.8831C51.9892 50.8831 51.2653 50.1572 51.2653 49.2635C51.2653 48.3689 51.9892 47.6431 52.8821 47.6431C53.775 47.6431 54.4988 48.3689 54.4988 49.2635Z" fill="#171717"/>
<path d="M54.3634 39.966C54.3634 40.785 53.7004 41.449 52.8824 41.449C52.0645 41.449 51.4013 40.785 51.4013 39.966C51.4013 39.1459 52.0645 38.481 52.8824 38.481C53.7004 38.481 54.3634 39.1459 54.3634 39.966Z" fill="#171717"/>
<path d="M54.2009 30.668C54.2009 31.3967 53.6106 31.9889 52.8827 31.9889C52.1546 31.9889 51.5645 31.3967 51.5645 30.668C51.5645 29.9382 52.1546 29.347 52.8827 29.347C53.6106 29.347 54.2009 29.9382 54.2009 30.668Z" fill="#171717"/>
<path d="M54.0077 21.3682C54.0077 21.9908 53.504 22.4962 52.8825 22.4962C52.2611 22.4962 51.7573 21.9908 51.7573 21.3682C51.7573 20.7455 52.2611 20.2413 52.8825 20.2413C53.504 20.2413 54.0077 20.7455 54.0077 21.3682Z" fill="#171717"/>
<path d="M53.7769 12.0707C53.7769 12.5655 53.3765 12.9662 52.8826 12.9662C52.3885 12.9662 51.9881 12.5655 51.9881 12.0707C51.9881 11.5759 52.3885 11.174 52.8826 11.174C53.3765 11.174 53.7769 11.5759 53.7769 12.0707Z" fill="#171717"/>
<path d="M53.4904 2.77269C53.4904 3.10853 53.2183 3.38109 52.8826 3.38109C52.5468 3.38109 52.2747 3.10853 52.2747 2.77269C52.2747 2.43564 52.5468 2.16309 52.8826 2.16309C53.2183 2.16309 53.4904 2.43564 53.4904 2.77269Z" fill="#171717"/>
<path d="M46.5041 198.038C46.5041 198.415 46.1994 198.72 45.8235 198.72C45.4477 198.72 45.143 198.415 45.143 198.038C45.143 197.662 45.4477 197.356 45.8235 197.356C46.1994 197.356 46.5041 197.662 46.5041 198.038Z" fill="#171717"/>
<path d="M46.7463 188.74C46.7463 189.25 46.3332 189.664 45.8235 189.664C45.3139 189.664 44.9008 189.25 44.9008 188.74C44.9008 188.229 45.3139 187.815 45.8235 187.815C46.3332 187.815 46.7463 188.229 46.7463 188.74Z" fill="#171717"/>
<path d="M46.9391 179.441C46.9391 180.059 46.4396 180.559 45.8235 180.559C45.2075 180.559 44.7081 180.059 44.7081 179.441C44.7081 178.824 45.2075 178.324 45.8235 178.324C46.4396 178.324 46.9391 178.824 46.9391 179.441Z" fill="#171717"/>
<path d="M47.0985 170.143C47.0985 170.848 46.5277 171.42 45.8235 171.42C45.1194 171.42 44.5486 170.848 44.5486 170.143C44.5486 169.437 45.1194 168.865 45.8235 168.865C46.5277 168.865 47.0985 169.437 47.0985 170.143Z" fill="#171717"/>
<path d="M47.2306 160.845C47.2306 161.623 46.6006 162.254 45.8235 162.254C45.0465 162.254 44.4165 161.623 44.4165 160.845C44.4165 160.066 45.0465 159.435 45.8235 159.435C46.6006 159.435 47.2306 160.066 47.2306 160.845Z" fill="#171717"/>
<path d="M47.3381 151.546C47.3381 152.384 46.6601 153.064 45.8235 153.064C44.987 153.064 44.309 152.384 44.309 151.546C44.309 150.708 44.987 150.028 45.8235 150.028C46.6601 150.028 47.3381 150.708 47.3381 151.546Z" fill="#171717"/>
<path d="M47.4239 142.248C47.4239 143.133 46.7074 143.851 45.8235 143.851C44.9397 143.851 44.2232 143.133 44.2232 142.248C44.2232 141.362 44.9397 140.644 45.8235 140.644C46.7074 140.644 47.4239 141.362 47.4239 142.248Z" fill="#171717"/>
<path d="M47.4876 132.949C47.4876 133.87 46.7426 134.617 45.8235 134.617C44.9045 134.617 44.1595 133.87 44.1595 132.949C44.1595 132.028 44.9045 131.282 45.8235 131.282C46.7426 131.282 47.4876 132.028 47.4876 132.949Z" fill="#171717"/>
<path d="M47.5332 123.651C47.5332 124.597 46.7678 125.364 45.8235 125.364C44.8794 125.364 44.1139 124.597 44.1139 123.651C44.1139 122.705 44.8794 121.938 45.8235 121.938C46.7678 121.938 47.5332 122.705 47.5332 123.651Z" fill="#171717"/>
<path d="M47.5582 114.353C47.5582 115.313 46.7815 116.091 45.8235 116.091C44.8656 116.091 44.0889 115.313 44.0889 114.353C44.0889 113.393 44.8656 112.614 45.8235 112.614C46.7815 112.614 47.5582 113.393 47.5582 114.353Z" fill="#171717"/>
<path d="M47.5673 105.055C47.5673 106.019 46.7866 106.802 45.8235 106.802C44.8605 106.802 44.0797 106.019 44.0797 105.055C44.0797 104.089 44.8605 103.306 45.8235 103.306C46.7866 103.306 47.5673 104.089 47.5673 105.055Z" fill="#171717"/>
<path d="M47.5604 95.7555C47.5604 96.7173 46.7828 97.4964 45.8235 97.4964C44.8643 97.4964 44.0867 96.7173 44.0867 95.7555C44.0867 94.7946 44.8643 94.0155 45.8235 94.0155C46.7828 94.0155 47.5604 94.7946 47.5604 95.7555Z" fill="#171717"/>
<path d="M47.5376 86.4573C47.5376 87.4064 46.7702 88.1745 45.8235 88.1745C44.8769 88.1745 44.1095 87.4064 44.1095 86.4573C44.1095 85.5091 44.8769 84.74 45.8235 84.74C46.7702 84.74 47.5376 85.5091 47.5376 86.4573Z" fill="#171717"/>
<path d="M47.4989 77.1591C47.4989 78.0864 46.7488 78.8373 45.8235 78.8373C44.8983 78.8373 44.1482 78.0864 44.1482 77.1591C44.1482 76.2318 44.8983 75.48 45.8235 75.48C46.7488 75.48 47.4989 76.2318 47.4989 77.1591Z" fill="#171717"/>
<path d="M47.4402 67.8609C47.4402 68.7555 46.7164 69.4809 45.8235 69.4809C44.9307 69.4809 44.2069 68.7555 44.2069 67.8609C44.2069 66.9655 44.9307 66.2409 45.8235 66.2409C46.7164 66.2409 47.4402 66.9655 47.4402 67.8609Z" fill="#171717"/>
<path d="M47.3632 58.5618C47.3632 59.4145 46.6738 60.1045 45.8235 60.1045C44.9732 60.1045 44.2839 59.4145 44.2839 58.5618C44.2839 57.71 44.9732 57.0191 45.8235 57.0191C46.6738 57.0191 47.3632 57.71 47.3632 58.5618Z" fill="#171717"/>
<path d="M47.2638 49.2634C47.2638 50.0605 46.6189 50.7068 45.8234 50.7068C45.0281 50.7068 44.3833 50.0605 44.3833 49.2634C44.3833 48.4662 45.0281 47.8209 45.8234 47.8209C46.6189 47.8209 47.2638 48.4662 47.2638 49.2634Z" fill="#171717"/>
<path d="M47.1431 39.9651C47.1431 40.695 46.5523 41.2868 45.8233 41.2868C45.0946 41.2868 44.5037 40.695 44.5037 39.9651C44.5037 39.2353 45.0946 38.6425 45.8233 38.6425C46.5523 38.6425 47.1431 39.2353 47.1431 39.9651Z" fill="#171717"/>
<path d="M46.9976 30.6664C46.9976 31.3169 46.4718 31.8425 45.8232 31.8425C45.1746 31.8425 44.6488 31.3169 44.6488 30.6664C44.6488 30.017 45.1746 29.4893 45.8232 29.4893C46.4718 29.4893 46.9976 30.017 46.9976 30.6664Z" fill="#171717"/>
<path d="M46.8254 21.3677C46.8254 21.9225 46.3768 22.3723 45.8234 22.3723C45.27 22.3723 44.8213 21.9225 44.8213 21.3677C44.8213 20.8129 45.27 20.3643 45.8234 20.3643C46.3768 20.3643 46.8254 20.8129 46.8254 21.3677Z" fill="#171717"/>
<path d="M46.6202 12.0705C46.6202 12.5105 46.2635 12.8681 45.8235 12.8681C45.3836 12.8681 45.027 12.5105 45.027 12.0705C45.027 11.6294 45.3836 11.2718 45.8235 11.2718C46.2635 11.2718 46.6202 11.6294 46.6202 12.0705Z" fill="#171717"/>
<path d="M46.3656 2.77224C46.3656 3.07269 46.123 3.31476 45.8238 3.31476C45.5247 3.31476 45.2821 3.07269 45.2821 2.77224C45.2821 2.47302 45.5247 2.22974 45.8238 2.22974C46.123 2.22974 46.3656 2.47301 46.3656 2.77224Z" fill="#171717"/>
<path d="M39.3621 198.038C39.3621 198.369 39.0945 198.637 38.7643 198.637C38.4349 198.637 38.1673 198.369 38.1673 198.038C38.1673 197.708 38.4349 197.44 38.7643 197.44C39.0945 197.44 39.3621 197.708 39.3621 198.038Z" fill="#171717"/>
<path d="M39.5744 188.74C39.5744 189.188 39.2115 189.551 38.7643 189.551C38.3179 189.551 37.955 189.188 37.955 188.74C37.955 188.292 38.3179 187.928 38.7643 187.928C39.2115 187.928 39.5744 188.292 39.5744 188.74Z" fill="#171717"/>
<path d="M39.7432 179.441C39.7432 179.983 39.305 180.422 38.7643 180.422C38.2245 180.422 37.7863 179.983 37.7863 179.441C37.7863 178.9 38.2245 178.461 38.7643 178.461C39.305 178.461 39.7432 178.9 39.7432 179.441Z" fill="#171717"/>
<path d="M39.8838 170.143C39.8838 170.762 39.383 171.264 38.7643 171.264C38.1464 171.264 37.6457 170.762 37.6457 170.143C37.6457 169.524 38.1464 169.022 38.7643 169.022C39.383 169.022 39.8838 169.524 39.8838 170.143Z" fill="#171717"/>
<path d="M39.9999 160.845C39.9999 161.528 39.4465 162.082 38.7643 162.082C38.0829 162.082 37.5295 161.528 37.5295 160.845C37.5295 160.161 38.0829 159.607 38.7643 159.607C39.4465 159.607 39.9999 160.161 39.9999 160.845Z" fill="#171717"/>
<path d="M40.0934 151.546C40.0934 152.282 39.4991 152.878 38.7643 152.878C38.0303 152.878 37.4352 152.282 37.4352 151.546C37.4352 150.811 38.0303 150.214 38.7643 150.214C39.4991 150.214 40.0934 150.811 40.0934 151.546Z" fill="#171717"/>
<path d="M40.1696 142.248C40.1696 143.025 39.5409 143.655 38.7643 143.655C37.9886 143.655 37.3599 143.025 37.3599 142.248C37.3599 141.47 37.9886 140.84 38.7643 140.84C39.5409 140.84 40.1696 141.47 40.1696 142.248Z" fill="#171717"/>
<path d="M40.2249 132.949C40.2249 133.757 39.5708 134.412 38.7643 134.412C37.9587 134.412 37.3045 133.757 37.3045 132.949C37.3045 132.141 37.9587 131.486 38.7643 131.486C39.5708 131.486 40.2249 132.141 40.2249 132.949Z" fill="#171717"/>
<path d="M40.2648 123.651C40.2648 124.481 39.5935 125.155 38.7643 125.155C37.936 125.155 37.2637 124.481 37.2637 123.651C37.2637 122.821 37.936 122.147 38.7643 122.147C39.5935 122.147 40.2648 122.821 40.2648 123.651Z" fill="#171717"/>
<path d="M40.2866 114.353C40.2866 115.195 39.6053 115.878 38.7643 115.878C37.9242 115.878 37.2428 115.195 37.2428 114.353C37.2428 113.51 37.9242 112.827 38.7643 112.827C39.6053 112.827 40.2866 113.51 40.2866 114.353Z" fill="#171717"/>
<path d="M40.2948 105.055C40.2948 105.901 39.6098 106.587 38.7643 106.587C37.9196 106.587 37.2347 105.901 37.2347 105.055C37.2347 104.207 37.9196 103.521 38.7643 103.521C39.6098 103.521 40.2948 104.207 40.2948 105.055Z" fill="#171717"/>
<path d="M40.2893 95.7555C40.2893 96.5991 39.6062 97.2827 38.7643 97.2827C37.9233 97.2827 37.2401 96.5991 37.2401 95.7555C37.2401 94.9118 37.9233 94.2282 38.7643 94.2282C39.6062 94.2282 40.2893 94.9118 40.2893 95.7555Z" fill="#171717"/>
<path d="M40.2684 86.4573C40.2684 87.29 39.5953 87.9645 38.7642 87.9645C37.9341 87.9645 37.261 87.29 37.261 86.4573C37.261 85.6245 37.9341 84.95 38.7642 84.95C39.5953 84.95 40.2684 85.6245 40.2684 86.4573Z" fill="#171717"/>
<path d="M40.2349 77.1591C40.2349 77.9727 39.5772 78.6327 38.7643 78.6327C37.9523 78.6327 37.2946 77.9727 37.2946 77.1591C37.2946 76.3455 37.9523 75.6855 38.7643 75.6855C39.5772 75.6855 40.2349 76.3455 40.2349 77.1591Z" fill="#171717"/>
<path d="M40.1832 67.8609C40.1832 68.6455 39.5481 69.2818 38.7643 69.2818C37.9813 69.2818 37.3463 68.6455 37.3463 67.8609C37.3463 67.0755 37.9813 66.4391 38.7643 66.4391C39.5481 66.4391 40.1832 67.0755 40.1832 67.8609Z" fill="#171717"/>
<path d="M40.116 58.5618C40.116 59.31 39.5109 59.9164 38.7643 59.9164C38.0185 59.9164 37.4134 59.31 37.4134 58.5618C37.4134 57.8145 38.0185 57.2082 38.7643 57.2082C39.5109 57.2082 40.116 57.8145 40.116 58.5618Z" fill="#171717"/>
<path d="M40.0287 49.264C40.0287 49.9638 39.4629 50.5299 38.7645 50.5299C38.0671 50.5299 37.5003 49.9638 37.5003 49.264C37.5003 48.5642 38.0671 47.9972 38.7645 47.9972C39.4629 47.9972 40.0287 48.5642 40.0287 49.264Z" fill="#171717"/>
<path d="M39.9226 39.9646C39.9226 40.6055 39.4041 41.1263 38.7644 41.1263C38.1248 41.1263 37.6063 40.6055 37.6063 39.9646C37.6063 39.3238 38.1248 38.804 38.7644 38.804C39.4041 38.804 39.9226 39.3238 39.9226 39.9646Z" fill="#171717"/>
<path d="M39.7955 30.667C39.7955 31.2373 39.334 31.6996 38.7647 31.6996C38.1955 31.6996 37.734 31.2373 37.734 30.667C37.734 30.0968 38.1955 29.6345 38.7647 29.6345C39.334 29.6345 39.7955 30.0968 39.7955 30.667Z" fill="#171717"/>
<path d="M39.644 21.3689C39.644 21.8548 39.2504 22.2491 38.765 22.2491C38.2797 22.2491 37.8861 21.8548 37.8861 21.3689C37.8861 20.8819 38.2797 20.4887 38.765 20.4887C39.2504 20.4887 39.644 20.8819 39.644 21.3689Z" fill="#171717"/>
<path d="M39.4633 12.0693C39.4633 12.4568 39.1504 12.7701 38.7645 12.7701C38.3786 12.7701 38.0658 12.4568 38.0658 12.0693C38.0658 11.6829 38.3786 11.3696 38.7645 11.3696C39.1504 11.3696 39.4633 11.6829 39.4633 12.0693Z" fill="#171717"/>
<path d="M39.24 2.77163C39.24 3.03428 39.0271 3.2483 38.7645 3.2483C38.5019 3.2483 38.2889 3.03428 38.2889 2.77163C38.2889 2.50776 38.5019 2.29496 38.7645 2.29496C39.0271 2.29496 39.24 2.50776 39.24 2.77163Z" fill="#171717"/>
<path d="M32.2204 198.038C32.2204 198.323 31.99 198.553 31.706 198.553C31.422 198.553 31.1916 198.323 31.1916 198.038C31.1916 197.754 31.422 197.523 31.706 197.523C31.99 197.523 32.2204 197.754 32.2204 198.038Z" fill="#171717"/>
<path d="M32.4019 188.74C32.4019 189.125 32.0907 189.437 31.706 189.437C31.3213 189.437 31.0093 189.125 31.0093 188.74C31.0093 188.354 31.3213 188.042 31.706 188.042C32.0907 188.042 32.4019 188.354 32.4019 188.74Z" fill="#171717"/>
<path d="M32.547 179.441C32.547 179.907 32.1705 180.284 31.706 180.284C31.2415 180.284 30.8641 179.907 30.8641 179.441C30.8641 178.976 31.2415 178.598 31.706 178.598C32.1705 178.598 32.547 178.976 32.547 179.441Z" fill="#171717"/>
<path d="M32.6686 170.143C32.6686 170.676 32.2376 171.108 31.706 171.108C31.1744 171.108 30.7434 170.676 30.7434 170.143C30.7434 169.61 31.1744 169.178 31.706 169.178C32.2376 169.178 32.6686 169.61 32.6686 170.143Z" fill="#171717"/>
<path d="M32.7684 160.845C32.7684 161.433 32.293 161.91 31.706 161.91C31.119 161.91 30.6427 161.433 30.6427 160.845C30.6427 160.256 31.119 159.779 31.706 159.779C32.293 159.779 32.7684 160.256 32.7684 160.845Z" fill="#171717"/>
<path d="M32.8491 151.546C32.8491 152.179 32.3374 152.692 31.706 152.692C31.0746 152.692 30.562 152.179 30.562 151.546C30.562 150.913 31.0746 150.4 31.706 150.4C32.3374 150.4 32.8491 150.913 32.8491 151.546Z" fill="#171717"/>
<path d="M32.9145 142.248C32.9145 142.917 32.3737 143.459 31.706 143.459C31.0383 143.459 30.4967 142.917 30.4967 142.248C30.4967 141.579 31.0383 141.036 31.706 141.036C32.3737 141.036 32.9145 141.579 32.9145 142.248Z" fill="#171717"/>
<path d="M32.9625 132.949C32.9625 133.645 32.4 134.208 31.706 134.208C31.012 134.208 30.4495 133.645 30.4495 132.949C30.4495 132.254 31.012 131.69 31.706 131.69C32.4 131.69 32.9625 132.254 32.9625 132.949Z" fill="#171717"/>
<path d="M32.997 123.651C32.997 124.366 32.4191 124.945 31.706 124.945C30.9929 124.945 30.4141 124.366 30.4141 123.651C30.4141 122.936 30.9929 122.357 31.706 122.357C32.4191 122.357 32.997 122.936 32.997 123.651Z" fill="#171717"/>
<path d="M33.0161 114.353C33.0161 115.077 32.4291 115.665 31.706 115.665C30.983 115.665 30.396 115.077 30.396 114.353C30.396 113.628 30.983 113.04 31.706 113.04C32.4291 113.04 33.0161 113.628 33.0161 114.353Z" fill="#171717"/>
<path d="M33.0224 105.055C33.0224 105.783 32.4336 106.374 31.706 106.374C30.9784 106.374 30.3887 105.783 30.3887 105.055C30.3887 104.325 30.9784 103.735 31.706 103.735C32.4336 103.735 33.0224 104.325 33.0224 105.055Z" fill="#171717"/>
<path d="M33.0179 95.7555C33.0179 96.4818 32.43 97.07 31.706 97.07C30.9811 97.07 30.3941 96.4818 30.3941 95.7555C30.3941 95.03 30.9811 94.4409 31.706 94.4409C32.43 94.4409 33.0179 95.03 33.0179 95.7555Z" fill="#171717"/>
<path d="M32.9997 86.4573C32.9997 87.1737 32.4209 87.7546 31.706 87.7546C30.9911 87.7546 30.4123 87.1737 30.4123 86.4573C30.4123 85.7409 30.9911 85.1609 31.706 85.1609C32.4209 85.1609 32.9997 85.7409 32.9997 86.4573Z" fill="#171717"/>
<path d="M32.9716 77.1591C32.9716 77.8591 32.4046 78.4273 31.706 78.4273C31.0065 78.4273 30.4404 77.8591 30.4404 77.1591C30.4404 76.4582 31.0065 75.8909 31.706 75.8909C32.4046 75.8909 32.9716 76.4582 32.9716 77.1591Z" fill="#171717"/>
<path d="M32.9262 67.8609C32.9262 68.5364 32.3801 69.0836 31.706 69.0836C31.0319 69.0836 30.4858 68.5364 30.4858 67.8609C30.4858 67.1855 31.0319 66.6373 31.706 66.6373C32.3801 66.6373 32.9262 67.1855 32.9262 67.8609Z" fill="#171717"/>
<path d="M32.8691 58.5618C32.8691 59.2055 32.3483 59.7273 31.706 59.7273C31.0637 59.7273 30.5429 59.2055 30.5429 58.5618C30.5429 57.9182 31.0637 57.3964 31.706 57.3964C32.3483 57.3964 32.8691 57.9182 32.8691 58.5618Z" fill="#171717"/>
<path d="M32.7935 49.2637C32.7935 49.8655 32.3067 50.3543 31.7061 50.3543C31.1056 50.3543 30.6187 49.8655 30.6187 49.2637C30.6187 48.6619 31.1056 48.175 31.7061 48.175C32.3067 48.175 32.7935 48.6619 32.7935 49.2637Z" fill="#171717"/>
<path d="M32.703 39.9659C32.703 40.5179 32.2569 40.9648 31.7061 40.9648C31.1562 40.9648 30.7092 40.5179 30.7092 39.9659C30.7092 39.4139 31.1562 38.967 31.7061 38.967C32.2569 38.967 32.703 39.4139 32.703 39.9659Z" fill="#171717"/>
<path d="M32.5929 30.6675C32.5929 31.1587 32.1958 31.5556 31.7059 31.5556C31.216 31.5556 30.819 31.1587 30.819 30.6675C30.819 30.1762 31.216 29.7782 31.7059 29.7782C32.1958 29.7782 32.5929 30.1762 32.5929 30.6675Z" fill="#171717"/>
<path d="M32.4612 21.3673C32.4612 21.7856 32.1229 22.1244 31.7055 22.1244C31.2881 22.1244 30.9498 21.7856 30.9498 21.3673C30.9498 20.949 31.2881 20.6102 31.7055 20.6102C32.1229 20.6102 32.4612 20.949 32.4612 21.3673Z" fill="#171717"/>
<path d="M32.3073 12.0708C32.3073 12.4036 32.0382 12.6738 31.7063 12.6738C31.3744 12.6738 31.1054 12.4036 31.1054 12.0708C31.1054 11.738 31.3744 11.4689 31.7063 11.4689C32.0382 11.4689 32.3073 11.738 32.3073 12.0708Z" fill="#171717"/>
<path d="M32.1151 2.77129C32.1151 2.9986 31.9318 3.18215 31.7058 3.18215C31.4799 3.18215 31.2966 2.9986 31.2966 2.77129C31.2966 2.54519 31.4799 2.36164 31.7058 2.36164C31.9318 2.36164 32.1151 2.54519 32.1151 2.77129Z" fill="#171717"/>
<path d="M25.0778 198.038C25.0778 198.277 24.8854 198.47 24.6468 198.47C24.4091 198.47 24.2159 198.277 24.2159 198.038C24.2159 197.8 24.4091 197.606 24.6468 197.606C24.8854 197.606 25.0778 197.8 25.0778 198.038Z" fill="#171717"/>
<path d="M25.2302 188.74C25.2302 189.062 24.9689 189.324 24.6468 189.324C24.3248 189.324 24.0644 189.062 24.0644 188.74C24.0644 188.417 24.3248 188.155 24.6468 188.155C24.9689 188.155 25.2302 188.417 25.2302 188.74Z" fill="#171717"/>
<path d="M25.3518 179.441C25.3518 179.831 25.0361 180.147 24.6469 180.147C24.2577 180.147 23.9428 179.831 23.9428 179.441C23.9428 179.051 24.2577 178.735 24.6469 178.735C25.0361 178.735 25.3518 179.051 25.3518 179.441Z" fill="#171717"/>
<path d="M25.4543 170.143C25.4543 170.589 25.0923 170.951 24.6468 170.951C24.2014 170.951 23.8403 170.589 23.8403 170.143C23.8403 169.696 24.2014 169.334 24.6468 169.334C25.0923 169.334 25.4543 169.696 25.4543 170.143Z" fill="#171717"/>
<path d="M25.5378 160.845C25.5378 161.337 25.1386 161.737 24.6468 161.737C24.1551 161.737 23.756 161.337 23.756 160.845C23.756 160.352 24.1551 159.952 24.6468 159.952C25.1386 159.952 25.5378 160.352 25.5378 160.845Z" fill="#171717"/>
<path d="M25.6049 151.546C25.6049 152.076 25.1758 152.506 24.6468 152.506C24.1179 152.506 23.6888 152.076 23.6888 151.546C23.6888 151.016 24.1179 150.586 24.6468 150.586C25.1758 150.586 25.6049 151.016 25.6049 151.546Z" fill="#171717"/>
<path d="M25.6602 142.248C25.6602 142.808 25.2066 143.263 24.6468 143.263C24.0871 143.263 23.6335 142.808 23.6335 142.248C23.6335 141.687 24.0871 141.232 24.6468 141.232C25.2066 141.232 25.6602 141.687 25.6602 142.248Z" fill="#171717"/>
<path d="M25.6992 132.949C25.6992 133.532 25.2284 134.004 24.6469 134.004C24.0662 134.004 23.5945 133.532 23.5945 132.949C23.5945 132.367 24.0662 131.895 24.6469 131.895C25.2284 131.895 25.6992 132.367 25.6992 132.949Z" fill="#171717"/>
<path d="M25.7292 123.651C25.7292 124.25 25.2447 124.736 24.6469 124.736C24.049 124.736 23.5645 124.25 23.5645 123.651C23.5645 123.052 24.049 122.566 24.6469 122.566C25.2447 122.566 25.7292 123.052 25.7292 123.651Z" fill="#171717"/>
<path d="M25.7446 114.353C25.7446 114.96 25.2529 115.452 24.6468 115.452C24.0408 115.452 23.55 114.96 23.55 114.353C23.55 113.745 24.0408 113.253 24.6468 113.253C25.2529 113.253 25.7446 113.745 25.7446 114.353Z" fill="#171717"/>
<path d="M25.7509 105.055C25.7509 105.665 25.2565 106.16 24.6468 106.16C24.0372 106.16 23.5437 105.665 23.5437 105.055C23.5437 104.444 24.0372 103.948 24.6468 103.948C25.2565 103.948 25.7509 104.444 25.7509 105.055Z" fill="#171717"/>
<path d="M25.7464 95.7554C25.7464 96.3636 25.2538 96.8573 24.6469 96.8573C24.0399 96.8573 23.5482 96.3636 23.5482 95.7554C23.5482 95.1473 24.0399 94.6545 24.6469 94.6545C25.2538 94.6545 25.7464 95.1473 25.7464 95.7554Z" fill="#171717"/>
<path d="M25.731 86.4573C25.731 87.0573 25.2456 87.5436 24.6468 87.5436C24.0481 87.5436 23.5627 87.0573 23.5627 86.4573C23.5627 85.8573 24.0481 85.3709 24.6468 85.3709C25.2456 85.3709 25.731 85.8573 25.731 86.4573Z" fill="#171717"/>
<path d="M25.7074 77.1591C25.7074 77.7464 25.2329 78.2218 24.6468 78.2218C24.0617 78.2218 23.5863 77.7464 23.5863 77.1591C23.5863 76.5718 24.0617 76.0964 24.6468 76.0964C25.2329 76.0964 25.7074 76.5718 25.7074 77.1591Z" fill="#171717"/>
<path d="M25.6693 67.8609C25.6693 68.4264 25.212 68.8845 24.6468 68.8845C24.0825 68.8845 23.6244 68.4264 23.6244 67.8609C23.6244 67.2945 24.0825 66.8364 24.6468 66.8364C25.212 66.8364 25.6693 67.2945 25.6693 67.8609Z" fill="#171717"/>
<path d="M25.6221 58.5618C25.6221 59.1018 25.1857 59.5391 24.6468 59.5391C24.1088 59.5391 23.6725 59.1018 23.6725 58.5618C23.6725 58.0227 24.1088 57.5854 24.6468 57.5854C25.1857 57.5854 25.6221 58.0227 25.6221 58.5618Z" fill="#171717"/>
<path d="M25.5586 49.2642C25.5586 49.7683 25.1506 50.1771 24.6476 50.1771C24.1446 50.1771 23.7365 49.7683 23.7365 49.2642C23.7365 48.7602 24.1446 48.3513 24.6476 48.3513C25.1506 48.3513 25.5586 48.7602 25.5586 49.2642Z" fill="#171717"/>
<path d="M25.4828 39.9661C25.4828 40.4274 25.1084 40.8026 24.647 40.8026C24.1856 40.8026 23.8121 40.4274 23.8121 39.9661C23.8121 39.5027 24.1856 39.1285 24.647 39.1285C25.1084 39.1285 25.4828 39.5027 25.4828 39.9661Z" fill="#171717"/>
<path d="M25.39 30.6671C25.39 31.0784 25.0579 31.4122 24.6475 31.4122C24.237 31.4122 23.9039 31.0784 23.9039 30.6671C23.9039 30.2558 24.237 29.922 24.6475 29.922C25.0579 29.922 25.39 30.2558 25.39 30.6671Z" fill="#171717"/>
<path d="M25.2798 21.3688C25.2798 21.7185 24.9966 22.003 24.6472 22.003C24.2979 22.003 24.0146 21.7185 24.0146 21.3688C24.0146 21.0181 24.2979 20.7347 24.6472 20.7347C24.9966 20.7347 25.2798 21.0181 25.2798 21.3688Z" fill="#171717"/>
<path d="M25.1504 12.0698C25.1504 12.3491 24.9252 12.5751 24.6472 12.5751C24.3694 12.5751 24.1441 12.3491 24.1441 12.0698C24.1441 11.7916 24.3694 11.5667 24.6472 11.5667C24.9252 11.5667 25.1504 11.7916 25.1504 12.0698Z" fill="#171717"/>
<path d="M24.9903 2.77221C24.9903 2.96177 24.8366 3.1161 24.6472 3.1161C24.4578 3.1161 24.3041 2.96177 24.3041 2.77221C24.3041 2.58143 24.4578 2.42832 24.6472 2.42832C24.8366 2.42832 24.9903 2.58143 24.9903 2.77221Z" fill="#171717"/>
<path d="M17.9361 198.038C17.9361 198.23 17.78 198.387 17.5886 198.387C17.3963 198.387 17.2402 198.23 17.2402 198.038C17.2402 197.846 17.3963 197.69 17.5886 197.69C17.78 197.69 17.9361 197.846 17.9361 198.038Z" fill="#171717"/>
<path d="M18.0576 188.74C18.0576 189 17.8481 189.21 17.5886 189.21C17.3291 189.21 17.1187 189 17.1187 188.74C17.1187 188.48 17.3291 188.269 17.5886 188.269C17.8481 188.269 18.0576 188.48 18.0576 188.74Z" fill="#171717"/>
<path d="M18.1556 179.441C18.1556 179.755 17.9016 180.01 17.5886 180.01C17.2747 180.01 17.0207 179.755 17.0207 179.441C17.0207 179.127 17.2747 178.873 17.5886 178.873C17.9016 178.873 18.1556 179.127 18.1556 179.441Z" fill="#171717"/>
<path d="M18.2391 170.143C18.2391 170.503 17.9479 170.795 17.5886 170.795C17.2284 170.795 16.9372 170.503 16.9372 170.143C16.9372 169.783 17.2284 169.491 17.5886 169.491C17.9479 169.491 18.2391 169.783 18.2391 170.143Z" fill="#171717"/>
<path d="M18.3071 160.845C18.3071 161.242 17.9851 161.565 17.5886 161.565C17.1912 161.565 16.8692 161.242 16.8692 160.845C16.8692 160.447 17.1912 160.124 17.5886 160.124C17.9851 160.124 18.3071 160.447 18.3071 160.845Z" fill="#171717"/>
<path d="M18.3607 151.546C18.3607 151.974 18.015 152.32 17.5886 152.32C17.1613 152.32 16.8156 151.974 16.8156 151.546C16.8156 151.119 17.1613 150.772 17.5886 150.772C18.015 150.772 18.3607 151.119 18.3607 151.546Z" fill="#171717"/>
<path d="M18.406 142.248C18.406 142.7 18.0395 143.067 17.5886 143.067C17.1368 143.067 16.7703 142.7 16.7703 142.248C16.7703 141.795 17.1368 141.428 17.5886 141.428C18.0395 141.428 18.406 141.795 18.406 142.248Z" fill="#171717"/>
<path d="M18.4369 132.949C18.4369 133.419 18.0567 133.8 17.5886 133.8C17.1196 133.8 16.7394 133.419 16.7394 132.949C16.7394 132.48 17.1196 132.099 17.5886 132.099C18.0567 132.099 18.4369 132.48 18.4369 132.949Z" fill="#171717"/>
<path d="M18.4614 123.651C18.4614 124.134 18.0703 124.526 17.5886 124.526C17.106 124.526 16.7149 124.134 16.7149 123.651C16.7149 123.168 17.106 122.776 17.5886 122.776C18.0703 122.776 18.4614 123.168 18.4614 123.651Z" fill="#171717"/>
<path d="M18.4731 114.353C18.4731 114.842 18.0767 115.239 17.5886 115.239C17.0996 115.239 16.704 114.842 16.704 114.353C16.704 113.863 17.0996 113.466 17.5886 113.466C18.0767 113.466 18.4731 113.863 18.4731 114.353Z" fill="#171717"/>
<path d="M18.4786 105.055C18.4786 105.546 18.0794 105.946 17.5886 105.946C17.0969 105.946 16.6977 105.546 16.6977 105.055C16.6977 104.562 17.0969 104.162 17.5886 104.162C18.0794 104.162 18.4786 104.562 18.4786 105.055Z" fill="#171717"/>
<path d="M18.475 95.7555C18.475 96.2464 18.0776 96.6446 17.5886 96.6446C17.0987 96.6446 16.7013 96.2464 16.7013 95.7555C16.7013 95.2655 17.0987 94.8673 17.5886 94.8673C18.0776 94.8673 18.475 95.2655 18.475 95.7555Z" fill="#171717"/>
<path d="M18.4622 86.4573C18.4622 86.9409 18.0712 87.3336 17.5886 87.3336C17.105 87.3336 16.714 86.9409 16.714 86.4573C16.714 85.9736 17.105 85.5809 17.5886 85.5809C18.0712 85.5809 18.4622 85.9736 18.4622 86.4573Z" fill="#171717"/>
<path d="M18.4441 77.1591C18.4441 77.6327 18.0613 78.0164 17.5886 78.0164C17.1159 78.0164 16.7322 77.6327 16.7322 77.1591C16.7322 76.6855 17.1159 76.3018 17.5886 76.3018C18.0613 76.3018 18.4441 76.6855 18.4441 77.1591Z" fill="#171717"/>
<path d="M18.4124 67.8609C18.4124 68.3164 18.0431 68.6864 17.5886 68.6864C17.1332 68.6864 16.7639 68.3164 16.7639 67.8609C16.7639 67.4046 17.1332 67.0346 17.5886 67.0346C18.0431 67.0346 18.4124 67.4046 18.4124 67.8609Z" fill="#171717"/>
<path d="M18.3752 58.5618C18.3752 58.9973 18.0222 59.35 17.5886 59.35C17.154 59.35 16.802 58.9973 16.802 58.5618C16.802 58.1273 17.154 57.7736 17.5886 57.7736C18.0222 57.7736 18.3752 58.1273 18.3752 58.5618Z" fill="#171717"/>
<path d="M18.3221 49.2633C18.3221 49.6698 17.9936 49.9999 17.588 49.9999C17.1823 49.9999 16.8539 49.6698 16.8539 49.2633C16.8539 48.8568 17.1823 48.5277 17.588 48.5277C17.9936 48.5277 18.3221 48.8568 18.3221 49.2633Z" fill="#171717"/>
<path d="M18.2625 39.9655C18.2625 40.3384 17.9605 40.641 17.5884 40.641C17.2163 40.641 16.9143 40.3384 16.9143 39.9655C16.9143 39.5927 17.2163 39.29 17.5884 39.29C17.9605 39.29 18.2625 39.5927 18.2625 39.9655Z" fill="#171717"/>
<path d="M18.1873 30.667C18.1873 30.9984 17.9191 31.2671 17.5883 31.2671C17.2565 31.2671 16.9883 30.9984 16.9883 30.667C16.9883 30.3344 17.2565 30.0657 17.5883 30.0657C17.9191 30.0657 18.1873 30.3344 18.1873 30.667Z" fill="#171717"/>
<path d="M18.0977 21.368C18.0977 21.6501 17.8689 21.8782 17.5885 21.8782C17.3069 21.8782 17.0781 21.6501 17.0781 21.368C17.0781 21.0858 17.3069 20.8577 17.5885 20.8577C17.8689 20.8577 18.0977 21.0858 18.0977 21.368Z" fill="#171717"/>
<path d="M17.9932 12.0697C17.9932 12.2944 17.8122 12.4763 17.5879 12.4763C17.3636 12.4763 17.1821 12.2944 17.1821 12.0697C17.1821 11.8449 17.3636 11.663 17.5879 11.663C17.8122 11.663 17.9932 11.8449 17.9932 12.0697Z" fill="#171717"/>
<path d="M17.8653 2.77198C17.8653 2.92504 17.7414 3.05016 17.5886 3.05016C17.4357 3.05016 17.3118 2.92504 17.3118 2.77198C17.3118 2.61892 17.4357 2.49502 17.5886 2.49502C17.7414 2.49502 17.8653 2.61892 17.8653 2.77198Z" fill="#171717"/>
<path d="M10.7943 198.038C10.7943 198.184 10.6755 198.303 10.5294 198.303C10.3834 198.303 10.2645 198.184 10.2645 198.038C10.2645 197.892 10.3834 197.773 10.5294 197.773C10.6755 197.773 10.7943 197.892 10.7943 198.038Z" fill="#171717"/>
<path d="M10.886 188.74C10.886 188.937 10.7263 189.097 10.5294 189.097C10.3326 189.097 10.1729 188.937 10.1729 188.74C10.1729 188.542 10.3326 188.382 10.5294 188.382C10.7263 188.382 10.886 188.542 10.886 188.74Z" fill="#171717"/>
<path d="M10.9595 179.441C10.9595 179.679 10.7671 179.873 10.5294 179.873C10.2917 179.873 10.0994 179.679 10.0994 179.441C10.0994 179.203 10.2917 179.01 10.5294 179.01C10.7671 179.01 10.9595 179.203 10.9595 179.441Z" fill="#171717"/>
<path d="M11.0248 170.143C11.0248 170.417 10.8025 170.639 10.5294 170.639C10.2564 170.639 10.035 170.417 10.035 170.143C10.035 169.869 10.2564 169.647 10.5294 169.647C10.8025 169.647 11.0248 169.869 11.0248 170.143Z" fill="#171717"/>
<path d="M11.0756 160.845C11.0756 161.147 10.8315 161.392 10.5294 161.392C10.2273 161.392 9.98328 161.147 9.98328 160.845C9.98328 160.542 10.2273 160.297 10.5294 160.297C10.8315 160.297 11.0756 160.542 11.0756 160.845Z" fill="#171717"/>
<path d="M11.1164 151.546C11.1164 151.871 10.8533 152.134 10.5294 152.134C10.2056 152.134 9.94246 151.871 9.94246 151.546C9.94246 151.221 10.2056 150.958 10.5294 150.958C10.8533 150.958 11.1164 151.221 11.1164 151.546Z" fill="#171717"/>
<path d="M11.1518 142.248C11.1518 142.592 10.8733 142.871 10.5294 142.871C10.1856 142.871 9.90708 142.592 9.90708 142.248C9.90708 141.904 10.1856 141.625 10.5294 141.625C10.8733 141.625 11.1518 141.904 11.1518 142.248Z" fill="#171717"/>
<path d="M11.1745 132.949C11.1745 133.306 10.8851 133.595 10.5294 133.595C10.1738 133.595 9.88439 133.306 9.88439 132.949C9.88439 132.593 10.1738 132.303 10.5294 132.303C10.8851 132.303 11.1745 132.593 11.1745 132.949Z" fill="#171717"/>
<path d="M11.1935 123.651C11.1935 124.019 10.8959 124.317 10.5294 124.317C10.1629 124.317 9.86532 124.019 9.86532 123.651C9.86532 123.283 10.1629 122.985 10.5294 122.985C10.8959 122.985 11.1935 123.283 11.1935 123.651Z" fill="#171717"/>
<path d="M11.2017 114.353C11.2017 114.725 10.9005 115.026 10.5294 115.026C10.1584 115.026 9.85718 114.725 9.85718 114.353C9.85718 113.981 10.1584 113.679 10.5294 113.679C10.9005 113.679 11.2017 113.981 11.2017 114.353Z" fill="#171717"/>
<path d="M11.2062 105.055C11.2062 105.429 10.9032 105.732 10.5294 105.732C10.1557 105.732 9.85266 105.429 9.85266 105.055C9.85266 104.68 10.1557 104.376 10.5294 104.376C10.9032 104.376 11.2062 104.68 11.2062 105.055Z" fill="#171717"/>
<path d="M11.2035 95.7554C11.2035 96.1291 10.9014 96.4309 10.5295 96.4309C10.1575 96.4309 9.85538 96.1291 9.85538 95.7554C9.85538 95.3827 10.1575 95.08 10.5295 95.08C10.9014 95.08 11.2035 95.3827 11.2035 95.7554Z" fill="#171717"/>
<path d="M11.1935 86.4573C11.1935 86.8245 10.8959 87.1227 10.5294 87.1227C10.1629 87.1227 9.86532 86.8245 9.86532 86.4573C9.86532 86.09 10.1629 85.7918 10.5294 85.7918C10.8959 85.7918 11.1935 86.09 11.1935 86.4573Z" fill="#171717"/>
<path d="M11.1799 77.1591C11.1799 77.5191 10.8887 77.8109 10.5294 77.8109C10.1702 77.8109 9.87896 77.5191 9.87896 77.1591C9.87896 76.7991 10.1702 76.5064 10.5294 76.5064C10.8887 76.5064 11.1799 76.7991 11.1799 77.1591Z" fill="#171717"/>
<path d="M11.1554 67.8609C11.1554 68.2073 10.8751 68.4882 10.5294 68.4882C10.1838 68.4882 9.90345 68.2073 9.90345 67.8609C9.90345 67.5136 10.1838 67.2327 10.5294 67.2327C10.8751 67.2327 11.1554 67.5136 11.1554 67.8609Z" fill="#171717"/>
<path d="M11.1282 58.5618C11.1282 58.8936 10.8597 59.1618 10.5294 59.1618C10.1992 59.1618 9.93156 58.8936 9.93156 58.5618C9.93156 58.2309 10.1992 57.9627 10.5294 57.9627C10.8597 57.9627 11.1282 58.2309 11.1282 58.5618Z" fill="#171717"/>
<path d="M11.0869 49.2628C11.0869 49.572 10.8369 49.8225 10.5292 49.8225C10.2207 49.8225 9.97069 49.572 9.97069 49.2628C9.97069 48.9536 10.2207 48.704 10.5292 48.704C10.8369 48.704 11.0869 48.9536 11.0869 49.2628Z" fill="#171717"/>
<path d="M11.0421 39.9653C11.0421 40.2489 10.8123 40.4791 10.5294 40.4791C10.2464 40.4791 10.0166 40.2489 10.0166 39.9653C10.0166 39.6818 10.2464 39.4515 10.5294 39.4515C10.8123 39.4515 11.0421 39.6818 11.0421 39.9653Z" fill="#171717"/>
<path d="M10.9853 30.667C10.9853 30.9188 10.781 31.1225 10.5287 31.1225C10.2774 31.1225 10.0731 30.9188 10.0731 30.667C10.0731 30.4142 10.2774 30.2094 10.5287 30.2094C10.781 30.2094 10.9853 30.4142 10.9853 30.667Z" fill="#171717"/>
<path d="M10.916 21.3687C10.916 21.5835 10.7435 21.7553 10.5291 21.7553C10.3159 21.7553 10.1434 21.5835 10.1434 21.3687C10.1434 21.1551 10.3159 20.9822 10.5291 20.9822C10.7435 20.9822 10.916 21.1551 10.916 21.3687Z" fill="#171717"/>
<path d="M10.8369 12.0703C10.8369 12.2405 10.6994 12.3783 10.5296 12.3783C10.3597 12.3783 10.2222 12.2405 10.2222 12.0703C10.2222 11.9001 10.3597 11.7623 10.5296 11.7623C10.6994 11.7623 10.8369 11.9001 10.8369 12.0703Z" fill="#171717"/>
<path d="M10.7401 2.77151C10.7401 2.88687 10.6455 2.98159 10.5292 2.98159C10.4128 2.98159 10.3183 2.88687 10.3183 2.77151C10.3183 2.65493 10.4128 2.56021 10.5292 2.56021C10.6455 2.56021 10.7401 2.65493 10.7401 2.77151Z" fill="#171717"/>
<path d="M3.6517 198.038C3.6517 198.138 3.57096 198.22 3.47026 198.22C3.37046 198.22 3.28971 198.138 3.28971 198.038C3.28971 197.938 3.37046 197.856 3.47026 197.856C3.57096 197.856 3.6517 197.938 3.6517 198.038Z" fill="#171717"/>
<path d="M3.71429 188.74C3.71429 188.874 3.60543 188.984 3.47025 188.984C3.33598 188.984 3.22711 188.874 3.22711 188.74C3.22711 188.605 3.33598 188.496 3.47025 188.496C3.60543 188.496 3.71429 188.605 3.71429 188.74Z" fill="#171717"/>
<path d="M3.76422 179.441C3.76422 179.604 3.63268 179.735 3.47028 179.735C3.3088 179.735 3.17724 179.604 3.17724 179.441C3.17724 179.279 3.3088 179.147 3.47028 179.147C3.63268 179.147 3.76422 179.279 3.76422 179.441Z" fill="#171717"/>
<path d="M3.80957 170.143C3.80957 170.33 3.65807 170.482 3.47027 170.482C3.28338 170.482 3.13187 170.33 3.13187 170.143C3.13187 169.955 3.28338 169.803 3.47027 169.803C3.65807 169.803 3.80957 169.955 3.80957 170.143Z" fill="#171717"/>
<path d="M3.84494 160.845C3.84494 161.052 3.6771 161.22 3.47026 161.22C3.26341 161.22 3.09647 161.052 3.09647 160.845C3.09647 160.637 3.26341 160.469 3.47026 160.469C3.6771 160.469 3.84494 160.637 3.84494 160.845Z" fill="#171717"/>
<path d="M3.87219 151.546C3.87219 151.768 3.69256 151.948 3.47029 151.948C3.24893 151.948 3.06929 151.768 3.06929 151.546C3.06929 151.324 3.24893 151.144 3.47029 151.144C3.69256 151.144 3.87219 151.324 3.87219 151.546Z" fill="#171717"/>
<path d="M3.89667 142.248C3.89667 142.484 3.70615 142.675 3.47027 142.675C3.2353 142.675 3.04477 142.484 3.04477 142.248C3.04477 142.012 3.2353 141.821 3.47027 141.821C3.70615 141.821 3.89667 142.012 3.89667 142.248Z" fill="#171717"/>
<path d="M3.91119 132.949C3.91119 133.193 3.71433 133.391 3.47028 133.391C3.22715 133.391 3.03028 133.193 3.03028 132.949C3.03028 132.705 3.22715 132.508 3.47028 132.508C3.71433 132.508 3.91119 132.705 3.91119 132.949Z" fill="#171717"/>
<path d="M3.92569 123.651C3.92569 123.903 3.72248 124.107 3.47027 124.107C3.21896 124.107 3.01574 123.903 3.01574 123.651C3.01574 123.399 3.21896 123.195 3.47027 123.195C3.72248 123.195 3.92569 123.399 3.92569 123.651Z" fill="#171717"/>
<path d="M3.93024 114.353C3.93024 114.607 3.7243 114.813 3.47028 114.813C3.21716 114.813 3.01121 114.607 3.01121 114.353C3.01121 114.098 3.21716 113.892 3.47028 113.892C3.7243 113.892 3.93024 114.098 3.93024 114.353Z" fill="#171717"/>
<path d="M3.93387 105.055C3.93387 105.311 3.72612 105.518 3.47028 105.518C3.21444 105.518 3.00759 105.311 3.00759 105.055C3.00759 104.797 3.21444 104.59 3.47028 104.59C3.72612 104.59 3.93387 104.797 3.93387 105.055Z" fill="#171717"/>
<path d="M3.93204 95.7555C3.93204 96.0109 3.72519 96.2182 3.47026 96.2182C3.21624 96.2182 3.00938 96.0109 3.00938 95.7555C3.00938 95.5 3.21624 95.2936 3.47026 95.2936C3.72519 95.2936 3.93204 95.5 3.93204 95.7555Z" fill="#171717"/>
<path d="M3.9248 86.4573C3.9248 86.7091 3.72159 86.9127 3.47029 86.9127C3.21989 86.9127 3.01667 86.7091 3.01667 86.4573C3.01667 86.2064 3.21989 86.0018 3.47029 86.0018C3.72159 86.0018 3.9248 86.2064 3.9248 86.4573Z" fill="#171717"/>
<path d="M3.91663 77.1591C3.91663 77.4055 3.71704 77.6055 3.47028 77.6055C3.22442 77.6055 3.02482 77.4055 3.02482 77.1591C3.02482 76.9118 3.22442 76.7118 3.47028 76.7118C3.71704 76.7118 3.91663 76.9118 3.91663 77.1591Z" fill="#171717"/>
<path d="M3.89847 67.8609C3.89847 68.0973 3.70705 68.2891 3.47026 68.2891C3.23438 68.2891 3.04295 68.0973 3.04295 67.8609C3.04295 67.6236 3.23438 67.4318 3.47026 67.4318C3.70705 67.4318 3.89847 67.6236 3.89847 67.8609Z" fill="#171717"/>
<path d="M3.88034 58.5618C3.88034 58.7891 3.69709 58.9727 3.47028 58.9727C3.24438 58.9727 3.06021 58.7891 3.06021 58.5618C3.06021 58.3354 3.24438 58.1509 3.47028 58.1509C3.69709 58.1509 3.88034 58.3354 3.88034 58.5618Z" fill="#171717"/>
<path d="M3.85202 49.2627C3.85202 49.4738 3.68122 49.6459 3.4705 49.6459C3.25978 49.6459 3.08897 49.4738 3.08897 49.2627C3.08897 49.0524 3.25978 48.8804 3.4705 48.8804C3.68122 48.8804 3.85202 49.0524 3.85202 49.2627Z" fill="#171717"/>
<path d="M3.82159 39.9645C3.82159 40.1599 3.66399 40.3168 3.46994 40.3168C3.27589 40.3168 3.11927 40.1599 3.11927 39.9645C3.11927 39.77 3.27589 39.6131 3.46994 39.6131C3.66399 39.6131 3.82159 39.77 3.82159 39.9645Z" fill="#171717"/>
<path d="M3.78333 30.6678C3.78333 30.8401 3.6427 30.9799 3.47082 30.9799C3.29789 30.9799 3.15831 30.8401 3.15831 30.6678C3.15831 30.4945 3.29789 30.3547 3.47082 30.3547C3.6427 30.3547 3.78333 30.4945 3.78333 30.6678Z" fill="#171717"/>
<path d="M3.73456 21.3693C3.73456 21.5157 3.61594 21.6324 3.47096 21.6324C3.32598 21.6324 3.20845 21.5157 3.20845 21.3693C3.20845 21.2229 3.32598 21.1052 3.47096 21.1052C3.61594 21.1052 3.73456 21.2229 3.73456 21.3693Z" fill="#171717"/>
<path d="M3.6799 12.0696C3.6799 12.1865 3.58636 12.2802 3.47086 12.2802C3.35537 12.2802 3.26066 12.1865 3.26066 12.0696C3.26066 11.955 3.35537 11.8601 3.47086 11.8601C3.58636 11.8601 3.6799 11.955 3.6799 12.0696Z" fill="#171717"/>
<path d="M3.61438 2.77134C3.61438 2.85146 3.55018 2.91579 3.47022 2.91579C3.39027 2.91579 3.32605 2.85146 3.32605 2.77134C3.32605 2.69122 3.39027 2.62688 3.47022 2.62688C3.55018 2.62688 3.61438 2.69122 3.61438 2.77134Z" fill="#171717"/>
<path d="M73.2119 198.038C73.2119 198.507 73.591 198.887 74.0588 198.887C74.5266 198.887 74.9058 198.507 74.9058 198.038C74.9058 197.569 74.5266 197.189 74.0588 197.189C73.591 197.189 73.2119 197.569 73.2119 198.038Z" fill="#171717"/>
<path d="M72.9095 188.74C72.9095 189.376 73.4241 189.891 74.0588 189.891C74.6936 189.891 75.2082 189.376 75.2082 188.74C75.2082 188.104 74.6936 187.588 74.0588 187.588C73.4241 187.588 72.9095 188.104 72.9095 188.74Z" fill="#171717"/>
<path d="M72.6693 179.441C72.6693 180.21 73.2914 180.834 74.0588 180.834C74.8262 180.834 75.4484 180.21 75.4484 179.441C75.4484 178.672 74.8262 178.049 74.0588 178.049C73.2914 178.049 72.6693 178.672 72.6693 179.441Z" fill="#171717"/>
<path d="M72.4719 170.143C72.4719 171.021 73.1823 171.733 74.0588 171.733C74.9353 171.733 75.6458 171.021 75.6458 170.143C75.6458 169.265 74.9353 168.553 74.0588 168.553C73.1823 168.553 72.4719 169.265 72.4719 170.143Z" fill="#171717"/>
<path d="M72.3075 160.845C72.3075 161.814 73.0916 162.599 74.0588 162.599C75.026 162.599 75.8101 161.814 75.8101 160.845C75.8101 159.875 75.026 159.09 74.0588 159.09C73.0916 159.09 72.3075 159.875 72.3075 160.845Z" fill="#171717"/>
<path d="M72.1731 151.546C72.1731 152.59 73.0174 153.436 74.0588 153.436C75.1003 153.436 75.9445 152.59 75.9445 151.546C75.9445 150.503 75.1003 149.657 74.0588 149.657C73.0174 149.657 72.1731 150.503 72.1731 151.546Z" fill="#171717"/>
<path d="M72.0671 142.248C72.0671 143.35 72.9588 144.244 74.0588 144.244C75.1588 144.244 76.0505 143.35 76.0505 142.248C76.0505 141.145 75.1588 140.252 74.0588 140.252C72.9588 140.252 72.0671 141.145 72.0671 142.248Z" fill="#171717"/>
<path d="M71.987 132.949C71.987 134.096 72.9146 135.025 74.0588 135.025C75.2031 135.025 76.1306 134.096 76.1306 132.949C76.1306 131.803 75.2031 130.873 74.0588 130.873C72.9146 130.873 71.987 131.803 71.987 132.949Z" fill="#171717"/>
<path d="M71.9311 123.651C71.9311 124.828 72.8837 125.783 74.0588 125.783C75.2339 125.783 76.1865 124.828 76.1865 123.651C76.1865 122.473 75.2339 121.519 74.0588 121.519C72.8837 121.519 71.9311 122.473 71.9311 123.651Z" fill="#171717"/>
<path d="M71.8991 114.353C71.8991 115.548 72.866 116.517 74.0588 116.517C75.2515 116.517 76.2184 115.548 76.2184 114.353C76.2184 113.157 75.2515 112.188 74.0588 112.188C72.866 112.188 71.8991 113.157 71.8991 114.353Z" fill="#171717"/>
<path d="M71.8882 105.055C71.8882 106.255 72.86 107.229 74.0588 107.229C75.2576 107.229 76.2294 106.255 76.2294 105.055C76.2294 103.853 75.2576 102.879 74.0588 102.879C72.86 102.879 71.8882 103.853 71.8882 105.055Z" fill="#171717"/>
<path d="M71.8968 95.7554C71.8968 96.9518 72.8648 97.9218 74.0588 97.9218C75.2529 97.9218 76.2208 96.9518 76.2208 95.7554C76.2208 94.5591 75.2529 93.5891 74.0588 93.5891C72.8648 93.5891 71.8968 94.5591 71.8968 95.7554Z" fill="#171717"/>
<path d="M71.9248 86.4573C71.9248 87.6382 72.8802 88.5955 74.0588 88.5955C75.2374 88.5955 76.1928 87.6382 76.1928 86.4573C76.1928 85.2764 75.2374 84.3191 74.0588 84.3191C72.8802 84.3191 71.9248 85.2764 71.9248 86.4573Z" fill="#171717"/>
<path d="M71.9737 77.1591C71.9737 78.3127 72.9073 79.2482 74.0588 79.2482C75.2104 79.2482 76.144 78.3127 76.144 77.1591C76.144 76.0045 75.2104 75.0691 74.0588 75.0691C72.9073 75.0691 71.9737 76.0045 71.9737 77.1591Z" fill="#171717"/>
<path d="M72.046 67.8609C72.046 68.9745 72.9472 69.8773 74.0588 69.8773C75.1704 69.8773 76.0716 68.9745 76.0716 67.8609C76.0716 66.7464 75.1704 65.8436 74.0588 65.8436C72.9472 65.8436 72.046 66.7464 72.046 67.8609Z" fill="#171717"/>
<path d="M72.1426 58.5618C72.1426 59.6227 73.0006 60.4818 74.0588 60.4818C75.1171 60.4818 75.9749 59.6227 75.9749 58.5618C75.9749 57.5018 75.1171 56.6418 74.0588 56.6418C73.0006 56.6418 72.1426 57.5018 72.1426 58.5618Z" fill="#171717"/>
<path d="M72.2655 49.2627C72.2655 50.256 73.0683 51.0606 74.0587 51.0606C75.049 51.0606 75.8519 50.256 75.8519 49.2627C75.8519 48.2713 75.049 47.4667 74.0587 47.4667C73.0683 47.4667 72.2655 48.2713 72.2655 49.2627Z" fill="#171717"/>
<path d="M72.4165 39.9661C72.4165 40.8745 73.1519 41.6108 74.0589 41.6108C74.9661 41.6108 75.7014 40.8745 75.7014 39.9661C75.7014 39.0567 74.9661 38.3195 74.0589 38.3195C73.1519 38.3195 72.4165 39.0567 72.4165 39.9661Z" fill="#171717"/>
<path d="M72.5969 30.6668C72.5969 31.476 73.2514 32.1318 74.0588 32.1318C74.8662 32.1318 75.5208 31.476 75.5208 30.6668C75.5208 29.8586 74.8662 29.2018 74.0588 29.2018C73.2514 29.2018 72.5969 29.8586 72.5969 30.6668Z" fill="#171717"/>
<path d="M72.8103 21.3673C72.8103 22.059 73.3692 22.6189 74.0586 22.6189C74.7482 22.6189 75.307 22.059 75.307 21.3673C75.307 20.6768 74.7482 20.1168 74.0586 20.1168C73.3692 20.1168 72.8103 20.6768 72.8103 21.3673Z" fill="#171717"/>
<path d="M73.0666 12.0698C73.0666 12.6195 73.5108 13.0646 74.0588 13.0646C74.6068 13.0646 75.0509 12.6195 75.0509 12.0698C75.0509 11.5213 74.6068 11.0762 74.0588 11.0762C73.5108 11.0762 73.0666 11.5213 73.0666 12.0698Z" fill="#171717"/>
<path d="M73.3847 2.77193C73.3847 3.1444 73.6866 3.44748 74.0589 3.44748C74.4312 3.44748 74.733 3.1444 74.733 2.77193C74.733 2.39947 74.4312 2.09639 74.0589 2.09639C73.6866 2.09639 73.3847 2.39947 73.3847 2.77193Z" fill="#171717"/>
<path d="M80.3539 198.038C80.3539 198.461 80.6958 198.803 81.1176 198.803C81.5394 198.803 81.8814 198.461 81.8814 198.038C81.8814 197.615 81.5394 197.273 81.1176 197.273C80.6958 197.273 80.3539 197.615 80.3539 198.038Z" fill="#171717"/>
<path d="M80.0815 188.74C80.0815 189.313 80.5454 189.778 81.1176 189.778C81.6899 189.778 82.1537 189.313 82.1537 188.74C82.1537 188.166 81.6899 187.702 81.1176 187.702C80.5454 187.702 80.0815 188.166 80.0815 188.74Z" fill="#171717"/>
<path d="M79.8651 179.441C79.8651 180.134 80.4258 180.696 81.1176 180.696C81.8094 180.696 82.3702 180.134 82.3702 179.441C82.3702 178.748 81.8094 178.186 81.1176 178.186C80.4258 178.186 79.8651 178.748 79.8651 179.441Z" fill="#171717"/>
<path d="M79.6867 170.143C79.6867 170.935 80.3273 171.577 81.1176 171.577C81.9079 171.577 82.5486 170.935 82.5486 170.143C82.5486 169.351 81.9079 168.709 81.1176 168.709C80.3273 168.709 79.6867 169.351 79.6867 170.143Z" fill="#171717"/>
<path d="M79.5385 160.845C79.5385 161.718 80.2455 162.427 81.1176 162.427C81.9898 162.427 82.6968 161.718 82.6968 160.845C82.6968 159.971 81.9898 159.262 81.1176 159.262C80.2455 159.262 79.5385 159.971 79.5385 160.845Z" fill="#171717"/>
<path d="M79.4175 151.546C79.4175 152.487 80.1787 153.25 81.1176 153.25C82.0566 153.25 82.8177 152.487 82.8177 151.546C82.8177 150.605 82.0566 149.842 81.1176 149.842C80.1787 149.842 79.4175 150.605 79.4175 151.546Z" fill="#171717"/>
<path d="M79.3215 142.248C79.3215 143.242 80.1257 144.047 81.1176 144.047C82.1096 144.047 82.9136 143.242 82.9136 142.248C82.9136 141.254 82.1096 140.448 81.1176 140.448C80.1257 140.448 79.3215 141.254 79.3215 142.248Z" fill="#171717"/>
<path d="M79.2497 132.949C79.2497 133.983 80.086 134.821 81.1176 134.821C82.1493 134.821 82.9856 133.983 82.9856 132.949C82.9856 131.916 82.1493 131.078 81.1176 131.078C80.086 131.078 79.2497 131.916 79.2497 132.949Z" fill="#171717"/>
<path d="M79.199 123.651C79.199 124.713 80.0579 125.574 81.1176 125.574C82.1773 125.574 83.0363 124.713 83.0363 123.651C83.0363 122.589 82.1773 121.728 81.1176 121.728C80.0579 121.728 79.199 122.589 79.199 123.651Z" fill="#171717"/>
<path d="M79.1705 114.353C79.1705 115.43 80.0423 116.304 81.1176 116.304C82.193 116.304 83.0648 115.43 83.0648 114.353C83.0648 113.275 82.193 112.401 81.1176 112.401C80.0423 112.401 79.1705 113.275 79.1705 114.353Z" fill="#171717"/>
<path d="M79.1604 105.055C79.1604 106.137 80.0367 107.015 81.1176 107.015C82.1986 107.015 83.0749 106.137 83.0749 105.055C83.0749 103.971 82.1986 103.093 81.1176 103.093C80.0367 103.093 79.1604 103.971 79.1604 105.055Z" fill="#171717"/>
<path d="M79.1682 95.7555C79.1682 96.8346 80.041 97.7091 81.1176 97.7091C82.1943 97.7091 83.067 96.8346 83.067 95.7555C83.067 94.6773 82.1943 93.8027 81.1176 93.8027C80.041 93.8027 79.1682 94.6773 79.1682 95.7555Z" fill="#171717"/>
<path d="M79.1936 86.4573C79.1936 87.5218 80.0551 88.3855 81.1176 88.3855C82.1802 88.3855 83.0417 87.5218 83.0417 86.4573C83.0417 85.3927 82.1802 84.5291 81.1176 84.5291C80.0551 84.5291 79.1936 85.3927 79.1936 86.4573Z" fill="#171717"/>
<path d="M79.2374 77.1591C79.2374 78.1991 80.0792 79.0427 81.1176 79.0427C82.1561 79.0427 82.9978 78.1991 82.9978 77.1591C82.9978 76.1182 82.1561 75.2745 81.1176 75.2745C80.0792 75.2745 79.2374 76.1182 79.2374 77.1591Z" fill="#171717"/>
<path d="M79.3029 67.8609C79.3029 68.8645 80.1154 69.6791 81.1176 69.6791C82.1199 69.6791 82.9323 68.8645 82.9323 67.8609C82.9323 66.8564 82.1199 66.0418 81.1176 66.0418C80.1154 66.0418 79.3029 66.8564 79.3029 67.8609Z" fill="#171717"/>
<path d="M79.3898 58.5618C79.3898 59.5182 80.1634 60.2936 81.1176 60.2936C82.0719 60.2936 82.8455 59.5182 82.8455 58.5618C82.8455 57.6055 82.0719 56.8309 81.1176 56.8309C80.1634 56.8309 79.3898 57.6055 79.3898 58.5618Z" fill="#171717"/>
<path d="M79.5007 49.2635C79.5007 50.1572 80.2244 50.8831 81.1173 50.8831C82.0102 50.8831 82.7341 50.1572 82.7341 49.2635C82.7341 48.3689 82.0102 47.6431 81.1173 47.6431C80.2244 47.6431 79.5007 48.3689 79.5007 49.2635Z" fill="#171717"/>
<path d="M79.6366 39.966C79.6366 40.785 80.2997 41.449 81.1176 41.449C81.9356 41.449 82.5987 40.785 82.5987 39.966C82.5987 39.1459 81.9356 38.481 81.1176 38.481C80.2997 38.481 79.6366 39.1459 79.6366 39.966Z" fill="#171717"/>
<path d="M79.7996 30.668C79.7996 31.3967 80.3898 31.9889 81.1178 31.9889C81.8459 31.9889 82.4361 31.3967 82.4361 30.668C82.4361 29.9382 81.8459 29.347 81.1178 29.347C80.3898 29.347 79.7996 29.9382 79.7996 30.668Z" fill="#171717"/>
<path d="M79.9926 21.3682C79.9926 21.9908 80.4963 22.4962 81.1177 22.4962C81.7392 22.4962 82.2429 21.9908 82.2429 21.3682C82.2429 20.7455 81.7392 20.2413 81.1177 20.2413C80.4963 20.2413 79.9926 20.7455 79.9926 21.3682Z" fill="#171717"/>
<path d="M80.2234 12.0707C80.2234 12.5655 80.6239 12.9662 81.1178 12.9662C81.6117 12.9662 82.0122 12.5655 82.0122 12.0707C82.0122 11.5759 81.6117 11.174 81.1178 11.174C80.6239 11.174 80.2234 11.5759 80.2234 12.0707Z" fill="#171717"/>
<path d="M80.5097 2.77269C80.5097 3.10853 80.782 3.38109 81.1177 3.38109C81.4535 3.38109 81.7256 3.10853 81.7256 2.77269C81.7256 2.43564 81.4535 2.16309 81.1177 2.16309C80.782 2.16309 80.5097 2.43564 80.5097 2.77269Z" fill="#171717"/>
<path d="M87.496 198.038C87.496 198.415 87.8006 198.72 88.1765 198.72C88.5523 198.72 88.857 198.415 88.857 198.038C88.857 197.662 88.5523 197.356 88.1765 197.356C87.8006 197.356 87.496 197.662 87.496 198.038Z" fill="#171717"/>
<path d="M87.2537 188.74C87.2537 189.25 87.6668 189.664 88.1765 189.664C88.6861 189.664 89.0992 189.25 89.0992 188.74C89.0992 188.229 88.6861 187.815 88.1765 187.815C87.6668 187.815 87.2537 188.229 87.2537 188.74Z" fill="#171717"/>
<path d="M87.061 179.441C87.061 180.059 87.5604 180.559 88.1765 180.559C88.7925 180.559 89.2919 180.059 89.2919 179.441C89.2919 178.824 88.7925 178.324 88.1765 178.324C87.5604 178.324 87.061 178.824 87.061 179.441Z" fill="#171717"/>
<path d="M86.9016 170.143C86.9016 170.848 87.4723 171.42 88.1765 171.42C88.8806 171.42 89.4514 170.848 89.4514 170.143C89.4514 169.437 88.8806 168.865 88.1765 168.865C87.4723 168.865 86.9016 169.437 86.9016 170.143Z" fill="#171717"/>
<path d="M86.7694 160.845C86.7694 161.623 87.3993 162.254 88.1765 162.254C88.9535 162.254 89.5835 161.623 89.5835 160.845C89.5835 160.066 88.9535 159.435 88.1765 159.435C87.3993 159.435 86.7694 160.066 86.7694 160.845Z" fill="#171717"/>
<path d="M86.6618 151.546C86.6618 152.384 87.3399 153.064 88.1764 153.064C89.0129 153.064 89.691 152.384 89.691 151.546C89.691 150.708 89.0129 150.028 88.1764 150.028C87.3399 150.028 86.6618 150.708 86.6618 151.546Z" fill="#171717"/>
<path d="M86.5761 142.248C86.5761 143.133 87.2926 143.851 88.1765 143.851C89.0603 143.851 89.7769 143.133 89.7769 142.248C89.7769 141.362 89.0603 140.644 88.1765 140.644C87.2926 140.644 86.5761 141.362 86.5761 142.248Z" fill="#171717"/>
<path d="M86.5123 132.949C86.5123 133.87 87.2574 134.617 88.1765 134.617C89.0955 134.617 89.8405 133.87 89.8405 132.949C89.8405 132.028 89.0955 131.282 88.1765 131.282C87.2574 131.282 86.5123 132.028 86.5123 132.949Z" fill="#171717"/>
<path d="M86.4668 123.651C86.4668 124.597 87.2322 125.364 88.1765 125.364C89.1206 125.364 89.886 124.597 89.886 123.651C89.886 122.705 89.1206 121.938 88.1765 121.938C87.2322 121.938 86.4668 122.705 86.4668 123.651Z" fill="#171717"/>
<path d="M86.4418 114.353C86.4418 115.313 87.2185 116.091 88.1765 116.091C89.1345 116.091 89.9111 115.313 89.9111 114.353C89.9111 113.393 89.1345 112.614 88.1765 112.614C87.2185 112.614 86.4418 113.393 86.4418 114.353Z" fill="#171717"/>
<path d="M86.4327 105.055C86.4327 106.019 87.2134 106.802 88.1765 106.802C89.1395 106.802 89.9203 106.019 89.9203 105.055C89.9203 104.089 89.1395 103.306 88.1765 103.306C87.2134 103.306 86.4327 104.089 86.4327 105.055Z" fill="#171717"/>
<path d="M86.4396 95.7555C86.4396 96.7173 87.2172 97.4964 88.1765 97.4964C89.1357 97.4964 89.9133 96.7173 89.9133 95.7555C89.9133 94.7946 89.1357 94.0155 88.1765 94.0155C87.2172 94.0155 86.4396 94.7946 86.4396 95.7555Z" fill="#171717"/>
<path d="M86.4624 86.4573C86.4624 87.4064 87.2298 88.1745 88.1765 88.1745C89.1231 88.1745 89.8905 87.4064 89.8905 86.4573C89.8905 85.5091 89.1231 84.74 88.1765 84.74C87.2298 84.74 86.4623 85.5091 86.4624 86.4573Z" fill="#171717"/>
<path d="M86.5011 77.1591C86.5011 78.0864 87.2512 78.8373 88.1765 78.8373C89.1017 78.8373 89.8517 78.0864 89.8517 77.1591C89.8517 76.2318 89.1017 75.48 88.1765 75.48C87.2512 75.48 86.5011 76.2318 86.5011 77.1591Z" fill="#171717"/>
<path d="M86.5599 67.8609C86.5599 68.7555 87.2836 69.4809 88.1765 69.4809C89.0693 69.4809 89.7931 68.7555 89.7931 67.8609C89.7931 66.9655 89.0693 66.2409 88.1765 66.2409C87.2836 66.2409 86.5599 66.9655 86.5599 67.8609Z" fill="#171717"/>
<path d="M86.6368 58.5618C86.6368 59.4145 87.3261 60.1045 88.1765 60.1045C89.0267 60.1045 89.7161 59.4145 89.7161 58.5618C89.7161 57.71 89.0267 57.0191 88.1765 57.0191C87.3261 57.0191 86.6368 57.71 86.6368 58.5618Z" fill="#171717"/>
<path d="M86.7361 49.2634C86.7361 50.0605 87.381 50.7068 88.1764 50.7068C88.9717 50.7068 89.6166 50.0605 89.6166 49.2634C89.6166 48.4662 88.9717 47.8209 88.1764 47.8209C87.381 47.8209 86.7361 48.4662 86.7361 49.2634Z" fill="#171717"/>
<path d="M86.8568 39.9651C86.8568 40.695 87.4476 41.2868 88.1765 41.2868C88.9052 41.2868 89.496 40.695 89.496 39.9651C89.496 39.2353 88.9052 38.6425 88.1765 38.6425C87.4476 38.6425 86.8568 39.2353 86.8568 39.9651Z" fill="#171717"/>
<path d="M87.0018 30.6664C87.0018 31.3169 87.5277 31.8425 88.1764 31.8425C88.825 31.8425 89.3508 31.3169 89.3508 30.6664C89.3508 30.017 88.825 29.4893 88.1764 29.4893C87.5277 29.4893 87.0018 30.017 87.0018 30.6664Z" fill="#171717"/>
<path d="M87.1743 21.3677C87.1743 21.9225 87.623 22.3723 88.1764 22.3723C88.7298 22.3723 89.1785 21.9225 89.1785 21.3677C89.1785 20.8129 88.7298 20.3643 88.1764 20.3643C87.623 20.3643 87.1743 20.8129 87.1743 21.3677Z" fill="#171717"/>
<path d="M87.3799 12.0705C87.3799 12.5105 87.7363 12.8681 88.1765 12.8681C88.6164 12.8681 88.973 12.5105 88.973 12.0705C88.973 11.6294 88.6164 11.2718 88.1765 11.2718C87.7363 11.2718 87.3799 11.6294 87.3799 12.0705Z" fill="#171717"/>
<path d="M87.6348 2.77224C87.6348 3.07269 87.8773 3.31476 88.1766 3.31476C88.4757 3.31476 88.7182 3.07269 88.7182 2.77224C88.7182 2.47301 88.4757 2.22974 88.1766 2.22974C87.8773 2.22974 87.6348 2.47302 87.6348 2.77224Z" fill="#171717"/>
<path d="M94.6379 198.038C94.6379 198.369 94.9055 198.637 95.2348 198.637C95.5651 198.637 95.8327 198.369 95.8327 198.038C95.8327 197.708 95.5651 197.44 95.2348 197.44C94.9055 197.44 94.6379 197.708 94.6379 198.038Z" fill="#171717"/>
<path d="M94.4256 188.74C94.4256 189.188 94.7885 189.551 95.2348 189.551C95.6821 189.551 96.045 189.188 96.045 188.74C96.045 188.292 95.6821 187.928 95.2348 187.928C94.7885 187.928 94.4256 188.292 94.4256 188.74Z" fill="#171717"/>
<path d="M94.2568 179.441C94.2568 179.983 94.695 180.422 95.2348 180.422C95.7756 180.422 96.2137 179.983 96.2137 179.441C96.2137 178.9 95.7756 178.461 95.2348 178.461C94.695 178.461 94.2568 178.9 94.2568 179.441Z" fill="#171717"/>
<path d="M94.1162 170.143C94.1162 170.762 94.617 171.264 95.2348 171.264C95.8536 171.264 96.3544 170.762 96.3544 170.143C96.3544 169.524 95.8536 169.022 95.2348 169.022C94.617 169.022 94.1162 169.524 94.1162 170.143Z" fill="#171717"/>
<path d="M94.0001 160.845C94.0001 161.528 94.5535 162.082 95.2348 162.082C95.9171 162.082 96.4705 161.528 96.4705 160.845C96.4705 160.161 95.9171 159.607 95.2348 159.607C94.5535 159.607 94.0001 160.161 94.0001 160.845Z" fill="#171717"/>
<path d="M93.9066 151.546C93.9066 152.282 94.5009 152.878 95.2348 152.878C95.9697 152.878 96.5639 152.282 96.5639 151.546C96.5639 150.811 95.9697 150.214 95.2348 150.214C94.5009 150.214 93.9066 150.811 93.9066 151.546Z" fill="#171717"/>
<path d="M93.8304 142.248C93.8304 143.025 94.4592 143.655 95.2348 143.655C96.0114 143.655 96.6401 143.025 96.6401 142.248C96.6401 141.47 96.0114 140.84 95.2348 140.84C94.4592 140.84 93.8304 141.47 93.8304 142.248Z" fill="#171717"/>
<path d="M93.7751 132.949C93.7751 133.757 94.4292 134.412 95.2349 134.412C96.0414 134.412 96.6955 133.757 96.6955 132.949C96.6955 132.141 96.0414 131.486 95.2349 131.486C94.4292 131.486 93.7751 132.141 93.7751 132.949Z" fill="#171717"/>
<path d="M93.7352 123.651C93.7352 124.481 94.4066 125.155 95.2349 125.155C96.0641 125.155 96.7354 124.481 96.7354 123.651C96.7354 122.821 96.0641 122.147 95.2349 122.147C94.4066 122.147 93.7352 122.821 93.7352 123.651Z" fill="#171717"/>
<path d="M93.7134 114.353C93.7134 115.195 94.3947 115.878 95.2348 115.878C96.0758 115.878 96.7571 115.195 96.7571 114.353C96.7571 113.51 96.0758 112.827 95.2348 112.827C94.3947 112.827 93.7134 113.51 93.7134 114.353Z" fill="#171717"/>
<path d="M93.7052 105.055C93.7052 105.901 94.3902 106.587 95.2348 106.587C96.0804 106.587 96.7653 105.901 96.7653 105.055C96.7653 104.207 96.0804 103.521 95.2348 103.521C94.3902 103.521 93.7052 104.207 93.7052 105.055Z" fill="#171717"/>
<path d="M93.7107 95.7555C93.7107 96.5991 94.3938 97.2827 95.2348 97.2827C96.0767 97.2827 96.7599 96.5991 96.7599 95.7555C96.7599 94.9118 96.0767 94.2282 95.2348 94.2282C94.3938 94.2282 93.7107 94.9118 93.7107 95.7555Z" fill="#171717"/>
<path d="M93.7315 86.4573C93.7315 87.29 94.4047 87.9645 95.2348 87.9645C96.0659 87.9645 96.739 87.29 96.739 86.4573C96.739 85.6245 96.0659 84.95 95.2348 84.95C94.4047 84.95 93.7315 85.6245 93.7315 86.4573Z" fill="#171717"/>
<path d="M93.7651 77.1591C93.7651 77.9727 94.4229 78.6327 95.2348 78.6327C96.0477 78.6327 96.7054 77.9727 96.7054 77.1591C96.7054 76.3455 96.0477 75.6855 95.2348 75.6855C94.4229 75.6855 93.7651 76.3455 93.7651 77.1591Z" fill="#171717"/>
<path d="M93.8168 67.8609C93.8168 68.6455 94.4519 69.2818 95.2348 69.2818C96.0187 69.2818 96.6537 68.6455 96.6537 67.8609C96.6537 67.0755 96.0187 66.4391 95.2348 66.4391C94.4519 66.4391 93.8168 67.0755 93.8168 67.8609Z" fill="#171717"/>
<path d="M93.884 58.5618C93.884 59.31 94.4891 59.9164 95.2348 59.9164C95.9815 59.9164 96.5866 59.31 96.5866 58.5618C96.5866 57.8145 95.9815 57.2082 95.2348 57.2082C94.4891 57.2082 93.884 57.8145 93.884 58.5618Z" fill="#171717"/>
<path d="M93.971 49.264C93.971 49.9638 94.5371 50.5299 95.2347 50.5299C95.9333 50.5299 96.4995 49.9638 96.4995 49.264C96.4995 48.5642 95.9333 47.9972 95.2347 47.9972C94.5371 47.9972 93.971 48.5642 93.971 49.264Z" fill="#171717"/>
<path d="M94.0771 39.9646C94.0771 40.6055 94.5951 41.1263 95.2347 41.1263C95.8753 41.1263 96.3933 40.6055 96.3933 39.9646C96.3933 39.3238 95.8753 38.804 95.2347 38.804C94.5951 38.804 94.0771 39.3238 94.0771 39.9646Z" fill="#171717"/>
<path d="M94.2042 30.667C94.2042 31.2373 94.666 31.6996 95.2348 31.6996C95.8046 31.6996 96.2664 31.2373 96.2664 30.667C96.2664 30.0968 95.8046 29.6345 95.2348 29.6345C94.666 29.6345 94.2042 30.0968 94.2042 30.667Z" fill="#171717"/>
<path d="M94.3567 21.3689C94.3567 21.8548 94.7496 22.2491 95.2349 22.2491C95.7212 22.2491 96.1141 21.8548 96.1141 21.3689C96.1141 20.8819 95.7212 20.4887 95.2349 20.4887C94.7496 20.4887 94.3567 20.8819 94.3567 21.3689Z" fill="#171717"/>
<path d="M94.5362 12.0693C94.5362 12.4568 94.8492 12.7701 95.2348 12.7701C95.6213 12.7701 95.9343 12.4568 95.9343 12.0693C95.9343 11.6829 95.6213 11.3696 95.2348 11.3696C94.8492 11.3696 94.5362 11.6829 94.5362 12.0693Z" fill="#171717"/>
<path d="M94.7593 2.77162C94.7593 3.03428 94.9725 3.24829 95.2346 3.24829C95.4978 3.24829 95.7109 3.03428 95.7109 2.77162C95.7109 2.50776 95.4978 2.29496 95.2346 2.29496C94.9725 2.29496 94.7593 2.50776 94.7593 2.77162Z" fill="#171717"/>
<path d="M101.78 198.038C101.78 198.323 102.01 198.553 102.294 198.553C102.578 198.553 102.808 198.323 102.808 198.038C102.808 197.754 102.578 197.523 102.294 197.523C102.01 197.523 101.78 197.754 101.78 198.038Z" fill="#171717"/>
<path d="M101.598 188.74C101.598 189.125 101.909 189.437 102.294 189.437C102.679 189.437 102.991 189.125 102.991 188.74C102.991 188.354 102.679 188.042 102.294 188.042C101.909 188.042 101.598 188.354 101.598 188.74Z" fill="#171717"/>
<path d="M101.453 179.441C101.453 179.907 101.83 180.284 102.294 180.284C102.759 180.284 103.136 179.907 103.136 179.441C103.136 178.976 102.759 178.598 102.294 178.598C101.83 178.598 101.453 178.976 101.453 179.441Z" fill="#171717"/>
<path d="M101.331 170.143C101.331 170.676 101.762 171.108 102.294 171.108C102.826 171.108 103.257 170.676 103.257 170.143C103.257 169.61 102.826 169.178 102.294 169.178C101.762 169.178 101.331 169.61 101.331 170.143Z" fill="#171717"/>
<path d="M101.232 160.845C101.232 161.433 101.707 161.91 102.294 161.91C102.881 161.91 103.357 161.433 103.357 160.845C103.357 160.256 102.881 159.779 102.294 159.779C101.707 159.779 101.232 160.256 101.232 160.845Z" fill="#171717"/>
<path d="M101.151 151.546C101.151 152.179 101.663 152.692 102.294 152.692C102.925 152.692 103.438 152.179 103.438 151.546C103.438 150.913 102.925 150.4 102.294 150.4C101.663 150.4 101.151 150.913 101.151 151.546Z" fill="#171717"/>
<path d="M101.086 142.248C101.086 142.917 101.626 143.459 102.294 143.459C102.962 143.459 103.503 142.917 103.503 142.248C103.503 141.579 102.962 141.036 102.294 141.036C101.626 141.036 101.086 141.579 101.086 142.248Z" fill="#171717"/>
<path d="M101.037 132.949C101.037 133.645 101.6 134.208 102.294 134.208C102.988 134.208 103.55 133.645 103.55 132.949C103.55 132.254 102.988 131.69 102.294 131.69C101.6 131.69 101.037 132.254 101.037 132.949Z" fill="#171717"/>
<path d="M101.003 123.651C101.003 124.366 101.581 124.945 102.294 124.945C103.007 124.945 103.586 124.366 103.586 123.651C103.586 122.936 103.007 122.357 102.294 122.357C101.581 122.357 101.003 122.936 101.003 123.651Z" fill="#171717"/>
<path d="M100.985 114.353C100.985 115.077 101.571 115.665 102.294 115.665C103.017 115.665 103.604 115.077 103.604 114.353C103.604 113.628 103.017 113.04 102.294 113.04C101.571 113.04 100.985 113.628 100.985 114.353Z" fill="#171717"/>
<path d="M100.977 105.055C100.977 105.783 101.566 106.374 102.294 106.374C103.022 106.374 103.611 105.783 103.611 105.055C103.611 104.325 103.022 103.735 102.294 103.735C101.566 103.735 100.977 104.325 100.977 105.055Z" fill="#171717"/>
<path d="M100.982 95.7555C100.982 96.4818 101.57 97.07 102.294 97.07C103.019 97.07 103.606 96.4818 103.606 95.7555C103.606 95.03 103.019 94.4409 102.294 94.4409C101.57 94.4409 100.982 95.03 100.982 95.7555Z" fill="#171717"/>
<path d="M101 86.4573C101 87.1737 101.579 87.7546 102.294 87.7546C103.009 87.7546 103.589 87.1737 103.589 86.4573C103.589 85.7409 103.009 85.1609 102.294 85.1609C101.579 85.1609 101 85.7409 101 86.4573Z" fill="#171717"/>
<path d="M101.028 77.1591C101.028 77.8591 101.595 78.4273 102.294 78.4273C102.993 78.4273 103.56 77.8591 103.56 77.1591C103.56 76.4582 102.993 75.8909 102.294 75.8909C101.595 75.8909 101.028 76.4582 101.028 77.1591Z" fill="#171717"/>
<path d="M101.074 67.8609C101.074 68.5364 101.62 69.0836 102.294 69.0836C102.968 69.0836 103.514 68.5364 103.514 67.8609C103.514 67.1855 102.968 66.6373 102.294 66.6373C101.62 66.6373 101.074 67.1855 101.074 67.8609Z" fill="#171717"/>
<path d="M101.131 58.5618C101.131 59.2055 101.652 59.7273 102.294 59.7273C102.936 59.7273 103.457 59.2055 103.457 58.5618C103.457 57.9182 102.936 57.3964 102.294 57.3964C101.652 57.3964 101.131 57.9182 101.131 58.5618Z" fill="#171717"/>
<path d="M101.207 49.2637C101.207 49.8655 101.694 50.3543 102.294 50.3543C102.895 50.3543 103.382 49.8655 103.382 49.2637C103.382 48.6619 102.895 48.175 102.294 48.175C101.694 48.175 101.207 48.6619 101.207 49.2637Z" fill="#171717"/>
<path d="M101.297 39.9659C101.297 40.5179 101.743 40.9648 102.294 40.9648C102.845 40.9648 103.291 40.5179 103.291 39.9659C103.291 39.4139 102.845 38.967 102.294 38.967C101.743 38.967 101.297 39.4139 101.297 39.9659Z" fill="#171717"/>
<path d="M101.407 30.6675C101.407 31.1587 101.804 31.5556 102.294 31.5556C102.784 31.5556 103.181 31.1587 103.181 30.6675C103.181 30.1762 102.784 29.7782 102.294 29.7782C101.804 29.7782 101.407 30.1762 101.407 30.6675Z" fill="#171717"/>
<path d="M101.538 21.3673C101.538 21.7856 101.877 22.1244 102.294 22.1244C102.711 22.1244 103.05 21.7856 103.05 21.3673C103.05 20.949 102.711 20.6102 102.294 20.6102C101.877 20.6102 101.538 20.949 101.538 21.3673Z" fill="#171717"/>
<path d="M101.693 12.0708C101.693 12.4036 101.962 12.6738 102.294 12.6738C102.626 12.6738 102.895 12.4036 102.895 12.0708C102.895 11.738 102.626 11.4689 102.294 11.4689C101.962 11.4689 101.693 11.738 101.693 12.0708Z" fill="#171717"/>
<path d="M101.885 2.77128C101.885 2.9986 102.068 3.18214 102.294 3.18214C102.52 3.18214 102.703 2.9986 102.703 2.77128C102.703 2.54519 102.52 2.36163 102.294 2.36163C102.068 2.36163 101.885 2.54519 101.885 2.77128Z" fill="#171717"/>
<path d="M108.922 198.038C108.922 198.277 109.115 198.47 109.353 198.47C109.591 198.47 109.784 198.277 109.784 198.038C109.784 197.8 109.591 197.606 109.353 197.606C109.115 197.606 108.922 197.8 108.922 198.038Z" fill="#171717"/>
<path d="M108.77 188.74C108.77 189.062 109.031 189.324 109.353 189.324C109.675 189.324 109.936 189.062 109.936 188.74C109.936 188.417 109.675 188.155 109.353 188.155C109.031 188.155 108.77 188.417 108.77 188.74Z" fill="#171717"/>
<path d="M108.648 179.441C108.648 179.831 108.964 180.147 109.353 180.147C109.742 180.147 110.057 179.831 110.057 179.441C110.057 179.051 109.742 178.735 109.353 178.735C108.964 178.735 108.648 179.051 108.648 179.441Z" fill="#171717"/>
<path d="M108.546 170.143C108.546 170.589 108.908 170.951 109.353 170.951C109.799 170.951 110.16 170.589 110.16 170.143C110.16 169.696 109.799 169.334 109.353 169.334C108.908 169.334 108.546 169.696 108.546 170.143Z" fill="#171717"/>
<path d="M108.462 160.845C108.462 161.337 108.86 161.737 109.353 161.737C109.845 161.737 110.244 161.337 110.244 160.845C110.244 160.352 109.845 159.952 109.353 159.952C108.86 159.952 108.462 160.352 108.462 160.845Z" fill="#171717"/>
<path d="M108.395 151.546C108.395 152.076 108.824 152.506 109.353 152.506C109.882 152.506 110.311 152.076 110.311 151.546C110.311 151.016 109.882 150.586 109.353 150.586C108.824 150.586 108.395 151.016 108.395 151.546Z" fill="#171717"/>
<path d="M108.34 142.248C108.34 142.808 108.793 143.263 109.353 143.263C109.913 143.263 110.367 142.808 110.367 142.248C110.367 141.687 109.913 141.232 109.353 141.232C108.793 141.232 108.34 141.687 108.34 142.248Z" fill="#171717"/>
<path d="M108.301 132.949C108.301 133.532 108.772 134.004 109.353 134.004C109.934 134.004 110.406 133.532 110.406 132.949C110.406 132.367 109.934 131.895 109.353 131.895C108.772 131.895 108.301 132.367 108.301 132.949Z" fill="#171717"/>
<path d="M108.271 123.651C108.271 124.25 108.755 124.736 109.353 124.736C109.951 124.736 110.435 124.25 110.435 123.651C110.435 123.052 109.951 122.566 109.353 122.566C108.755 122.566 108.271 123.052 108.271 123.651Z" fill="#171717"/>
<path d="M108.255 114.353C108.255 114.96 108.747 115.452 109.353 115.452C109.959 115.452 110.45 114.96 110.45 114.353C110.45 113.745 109.959 113.253 109.353 113.253C108.747 113.253 108.255 113.745 108.255 114.353Z" fill="#171717"/>
<path d="M108.249 105.055C108.249 105.665 108.744 106.16 109.353 106.16C109.963 106.16 110.456 105.665 110.456 105.055C110.456 104.444 109.963 103.948 109.353 103.948C108.744 103.948 108.249 104.444 108.249 105.055Z" fill="#171717"/>
<path d="M108.254 95.7554C108.254 96.3636 108.746 96.8573 109.353 96.8573C109.96 96.8573 110.452 96.3636 110.452 95.7554C110.452 95.1473 109.96 94.6545 109.353 94.6545C108.746 94.6545 108.254 95.1473 108.254 95.7554Z" fill="#171717"/>
<path d="M108.269 86.4573C108.269 87.0573 108.754 87.5436 109.353 87.5436C109.952 87.5436 110.437 87.0573 110.437 86.4573C110.437 85.8573 109.952 85.3709 109.353 85.3709C108.754 85.3709 108.269 85.8573 108.269 86.4573Z" fill="#171717"/>
<path d="M108.293 77.1591C108.293 77.7464 108.767 78.2218 109.353 78.2218C109.938 78.2218 110.414 77.7464 110.414 77.1591C110.414 76.5718 109.938 76.0964 109.353 76.0964C108.767 76.0964 108.293 76.5718 108.293 77.1591Z" fill="#171717"/>
<path d="M108.331 67.8609C108.331 68.4264 108.788 68.8845 109.353 68.8845C109.917 68.8845 110.376 68.4264 110.376 67.8609C110.376 67.2945 109.917 66.8364 109.353 66.8364C108.788 66.8364 108.331 67.2945 108.331 67.8609Z" fill="#171717"/>
<path d="M108.378 58.5618C108.378 59.1018 108.814 59.5391 109.353 59.5391C109.891 59.5391 110.328 59.1018 110.328 58.5618C110.328 58.0227 109.891 57.5854 109.353 57.5854C108.814 57.5854 108.378 58.0227 108.378 58.5618Z" fill="#171717"/>
<path d="M108.442 49.2642C108.442 49.7683 108.85 50.1771 109.353 50.1771C109.856 50.1771 110.264 49.7683 110.264 49.2642C110.264 48.7602 109.856 48.3513 109.353 48.3513C108.85 48.3513 108.442 48.7602 108.442 49.2642Z" fill="#171717"/>
<path d="M108.518 39.9661C108.518 40.4274 108.891 40.8026 109.353 40.8026C109.814 40.8026 110.188 40.4274 110.188 39.9661C110.188 39.5027 109.814 39.1285 109.353 39.1285C108.891 39.1285 108.518 39.5027 108.518 39.9661Z" fill="#171717"/>
<path d="M108.609 30.6671C108.609 31.0784 108.942 31.4122 109.353 31.4122C109.763 31.4122 110.096 31.0784 110.096 30.6671C110.096 30.2558 109.763 29.922 109.353 29.922C108.942 29.922 108.609 30.2558 108.609 30.6671Z" fill="#171717"/>
<path d="M108.72 21.3688C108.72 21.7185 109.004 22.003 109.353 22.003C109.702 22.003 109.985 21.7185 109.985 21.3688C109.985 21.0181 109.702 20.7347 109.353 20.7347C109.004 20.7347 108.72 21.0181 108.72 21.3688Z" fill="#171717"/>
<path d="M108.85 12.0698C108.85 12.3491 109.075 12.5751 109.353 12.5751C109.631 12.5751 109.856 12.3491 109.856 12.0698C109.856 11.7916 109.631 11.5667 109.353 11.5667C109.075 11.5667 108.85 11.7916 108.85 12.0698Z" fill="#171717"/>
<path d="M109.01 2.7722C109.01 2.96177 109.163 3.11609 109.353 3.11609C109.543 3.11609 109.696 2.96177 109.696 2.7722C109.696 2.58142 109.543 2.42831 109.353 2.42831C109.163 2.42831 109.01 2.58142 109.01 2.7722Z" fill="#171717"/>
<path d="M116.064 198.038C116.064 198.23 116.22 198.387 116.411 198.387C116.604 198.387 116.76 198.23 116.76 198.038C116.76 197.846 116.604 197.69 116.411 197.69C116.22 197.69 116.064 197.846 116.064 198.038Z" fill="#171717"/>
<path d="M115.941 188.74C115.941 189 116.152 189.21 116.411 189.21C116.671 189.21 116.881 189 116.881 188.74C116.881 188.48 116.671 188.269 116.411 188.269C116.152 188.269 115.941 188.48 115.941 188.74Z" fill="#171717"/>
<path d="M115.844 179.441C115.844 179.755 116.098 180.01 116.411 180.01C116.725 180.01 116.979 179.755 116.979 179.441C116.979 179.127 116.725 178.873 116.411 178.873C116.098 178.873 115.844 179.127 115.844 179.441Z" fill="#171717"/>
<path d="M115.761 170.143C115.761 170.503 116.052 170.795 116.411 170.795C116.772 170.795 117.063 170.503 117.063 170.143C117.063 169.783 116.772 169.491 116.411 169.491C116.052 169.491 115.761 169.783 115.761 170.143Z" fill="#171717"/>
<path d="M115.693 160.845C115.693 161.242 116.015 161.565 116.411 161.565C116.809 161.565 117.13 161.242 117.13 160.845C117.13 160.447 116.809 160.124 116.411 160.124C116.015 160.124 115.693 160.447 115.693 160.845Z" fill="#171717"/>
<path d="M115.639 151.546C115.639 151.974 115.985 152.32 116.411 152.32C116.839 152.32 117.184 151.974 117.184 151.546C117.184 151.119 116.839 150.772 116.411 150.772C115.985 150.772 115.639 151.119 115.639 151.546Z" fill="#171717"/>
<path d="M115.594 142.248C115.594 142.7 115.961 143.067 116.411 143.067C116.863 143.067 117.23 142.7 117.23 142.248C117.23 141.795 116.863 141.428 116.411 141.428C115.961 141.428 115.594 141.795 115.594 142.248Z" fill="#171717"/>
<path d="M115.563 132.949C115.563 133.419 115.943 133.8 116.411 133.8C116.88 133.8 117.261 133.419 117.261 132.949C117.261 132.48 116.88 132.099 116.411 132.099C115.943 132.099 115.563 132.48 115.563 132.949Z" fill="#171717"/>
<path d="M115.539 123.651C115.539 124.134 115.93 124.526 116.411 124.526C116.894 124.526 117.285 124.134 117.285 123.651C117.285 123.168 116.894 122.776 116.411 122.776C115.93 122.776 115.539 123.168 115.539 123.651Z" fill="#171717"/>
<path d="M115.527 114.353C115.527 114.842 115.923 115.239 116.411 115.239C116.9 115.239 117.296 114.842 117.296 114.353C117.296 113.863 116.9 113.466 116.411 113.466C115.923 113.466 115.527 113.863 115.527 114.353Z" fill="#171717"/>
<path d="M115.521 105.055C115.521 105.546 115.92 105.946 116.411 105.946C116.903 105.946 117.301 105.546 117.301 105.055C117.301 104.562 116.903 104.162 116.411 104.162C115.92 104.162 115.521 104.562 115.521 105.055Z" fill="#171717"/>
<path d="M115.525 95.7555C115.525 96.2464 115.922 96.6446 116.411 96.6446C116.901 96.6446 117.299 96.2464 117.299 95.7555C117.299 95.2655 116.901 94.8673 116.411 94.8673C115.922 94.8673 115.525 95.2655 115.525 95.7555Z" fill="#171717"/>
<path d="M115.538 86.4573C115.538 86.9409 115.929 87.3336 116.411 87.3336C116.895 87.3336 117.286 86.9409 117.286 86.4573C117.286 85.9736 116.895 85.5809 116.411 85.5809C115.929 85.5809 115.538 85.9736 115.538 86.4573Z" fill="#171717"/>
<path d="M115.556 77.1591C115.556 77.6327 115.939 78.0164 116.411 78.0164C116.884 78.0164 117.268 77.6327 117.268 77.1591C117.268 76.6855 116.884 76.3018 116.411 76.3018C115.939 76.3018 115.556 76.6855 115.556 77.1591Z" fill="#171717"/>
<path d="M115.588 67.8609C115.588 68.3164 115.957 68.6864 116.411 68.6864C116.867 68.6864 117.236 68.3164 117.236 67.8609C117.236 67.4046 116.867 67.0346 116.411 67.0346C115.957 67.0346 115.588 67.4046 115.588 67.8609Z" fill="#171717"/>
<path d="M115.625 58.5618C115.625 58.9973 115.978 59.35 116.411 59.35C116.846 59.35 117.198 58.9973 117.198 58.5618C117.198 58.1273 116.846 57.7736 116.411 57.7736C115.978 57.7736 115.625 58.1273 115.625 58.5618Z" fill="#171717"/>
<path d="M115.677 49.2633C115.677 49.6698 116.006 49.9999 116.411 49.9999C116.817 49.9999 117.146 49.6698 117.146 49.2633C117.146 48.8568 116.817 48.5277 116.411 48.5277C116.006 48.5277 115.677 48.8568 115.677 49.2633Z" fill="#171717"/>
<path d="M115.738 39.9655C115.738 40.3384 116.039 40.641 116.411 40.641C116.784 40.641 117.086 40.3384 117.086 39.9655C117.086 39.5927 116.784 39.29 116.411 39.29C116.039 39.29 115.738 39.5927 115.738 39.9655Z" fill="#171717"/>
<path d="M115.812 30.667C115.812 30.9984 116.08 31.2671 116.411 31.2671C116.743 31.2671 117.011 30.9984 117.011 30.667C117.011 30.3344 116.743 30.0657 116.411 30.0657C116.08 30.0657 115.812 30.3344 115.812 30.667Z" fill="#171717"/>
<path d="M115.902 21.368C115.902 21.6501 116.13 21.8782 116.411 21.8782C116.693 21.8782 116.921 21.6501 116.921 21.368C116.921 21.0858 116.693 20.8577 116.411 20.8577C116.13 20.8577 115.902 21.0858 115.902 21.368Z" fill="#171717"/>
<path d="M116.007 12.0697C116.007 12.2944 116.188 12.4763 116.411 12.4763C116.635 12.4763 116.817 12.2944 116.817 12.0697C116.817 11.8449 116.635 11.663 116.411 11.663C116.188 11.663 116.007 11.8449 116.007 12.0697Z" fill="#171717"/>
<path d="M116.135 2.77197C116.135 2.92503 116.259 3.05016 116.411 3.05016C116.565 3.05016 116.688 2.92503 116.688 2.77197C116.688 2.61891 116.565 2.49501 116.411 2.49501C116.259 2.49501 116.135 2.61891 116.135 2.77197Z" fill="#171717"/>
<path d="M123.206 198.038C123.206 198.184 123.324 198.303 123.471 198.303C123.617 198.303 123.735 198.184 123.735 198.038C123.735 197.892 123.617 197.773 123.471 197.773C123.324 197.773 123.206 197.892 123.206 198.038Z" fill="#171717"/>
<path d="M123.114 188.74C123.114 188.937 123.274 189.097 123.471 189.097C123.667 189.097 123.827 188.937 123.827 188.74C123.827 188.542 123.667 188.382 123.471 188.382C123.274 188.382 123.114 188.542 123.114 188.74Z" fill="#171717"/>
<path d="M123.041 179.441C123.041 179.679 123.233 179.873 123.471 179.873C123.708 179.873 123.901 179.679 123.901 179.441C123.901 179.203 123.708 179.01 123.471 179.01C123.233 179.01 123.041 179.203 123.041 179.441Z" fill="#171717"/>
<path d="M122.976 170.143C122.976 170.417 123.198 170.639 123.471 170.639C123.744 170.639 123.965 170.417 123.965 170.143C123.965 169.869 123.744 169.647 123.471 169.647C123.198 169.647 122.976 169.869 122.976 170.143Z" fill="#171717"/>
<path d="M122.924 160.845C122.924 161.147 123.168 161.392 123.471 161.392C123.773 161.392 124.017 161.147 124.017 160.845C124.017 160.542 123.773 160.297 123.471 160.297C123.168 160.297 122.924 160.542 122.924 160.845Z" fill="#171717"/>
<path d="M122.884 151.546C122.884 151.871 123.147 152.134 123.471 152.134C123.794 152.134 124.058 151.871 124.058 151.546C124.058 151.221 123.794 150.958 123.471 150.958C123.147 150.958 122.884 151.221 122.884 151.546Z" fill="#171717"/>
<path d="M122.848 142.248C122.848 142.592 123.127 142.871 123.471 142.871C123.814 142.871 124.092 142.592 124.092 142.248C124.092 141.904 123.814 141.625 123.471 141.625C123.127 141.625 122.848 141.904 122.848 142.248Z" fill="#171717"/>
<path d="M122.826 132.949C122.826 133.306 123.115 133.595 123.471 133.595C123.826 133.595 124.115 133.306 124.115 132.949C124.115 132.593 123.826 132.303 123.471 132.303C123.115 132.303 122.826 132.593 122.826 132.949Z" fill="#171717"/>
<path d="M122.806 123.651C122.806 124.019 123.104 124.317 123.471 124.317C123.837 124.317 124.135 124.019 124.135 123.651C124.135 123.283 123.837 122.985 123.471 122.985C123.104 122.985 122.806 123.283 122.806 123.651Z" fill="#171717"/>
<path d="M122.798 114.353C122.798 114.725 123.1 115.026 123.471 115.026C123.842 115.026 124.143 114.725 124.143 114.353C124.143 113.981 123.842 113.679 123.471 113.679C123.1 113.679 122.798 113.981 122.798 114.353Z" fill="#171717"/>
<path d="M122.794 105.055C122.794 105.429 123.097 105.732 123.471 105.732C123.844 105.732 124.147 105.429 124.147 105.055C124.147 104.68 123.844 104.376 123.471 104.376C123.097 104.376 122.794 104.68 122.794 105.055Z" fill="#171717"/>
<path d="M122.797 95.7554C122.797 96.1291 123.099 96.4309 123.471 96.4309C123.843 96.4309 124.145 96.1291 124.145 95.7554C124.145 95.3827 123.843 95.08 123.471 95.08C123.099 95.08 122.797 95.3827 122.797 95.7554Z" fill="#171717"/>
<path d="M122.806 86.4573C122.806 86.8245 123.104 87.1227 123.471 87.1227C123.837 87.1227 124.135 86.8245 124.135 86.4573C124.135 86.09 123.837 85.7918 123.471 85.7918C123.104 85.7918 122.806 86.09 122.806 86.4573Z" fill="#171717"/>
<path d="M122.819 77.1591C122.819 77.5191 123.111 77.8109 123.471 77.8109C123.83 77.8109 124.121 77.5191 124.121 77.1591C124.121 76.7991 123.83 76.5064 123.471 76.5064C123.111 76.5064 122.819 76.7991 122.819 77.1591Z" fill="#171717"/>
<path d="M122.845 67.8609C122.845 68.2073 123.125 68.4882 123.471 68.4882C123.816 68.4882 124.097 68.2073 124.097 67.8609C124.097 67.5136 123.816 67.2327 123.471 67.2327C123.125 67.2327 122.845 67.5136 122.845 67.8609Z" fill="#171717"/>
<path d="M122.872 58.5618C122.872 58.8936 123.14 59.1618 123.471 59.1618C123.801 59.1618 124.068 58.8936 124.068 58.5618C124.068 58.2309 123.801 57.9627 123.471 57.9627C123.14 57.9627 122.872 58.2309 122.872 58.5618Z" fill="#171717"/>
<path d="M122.913 49.2628C122.913 49.572 123.162 49.8225 123.47 49.8225C123.779 49.8225 124.028 49.572 124.028 49.2628C124.028 48.9536 123.779 48.704 123.47 48.704C123.162 48.704 122.913 48.9536 122.913 49.2628Z" fill="#171717"/>
<path d="M122.958 39.9653C122.958 40.2489 123.187 40.4791 123.471 40.4791C123.754 40.4791 123.983 40.2489 123.983 39.9653C123.983 39.6818 123.754 39.4515 123.471 39.4515C123.187 39.4515 122.958 39.6818 122.958 39.9653Z" fill="#171717"/>
<path d="M123.015 30.667C123.015 30.9188 123.218 31.1225 123.47 31.1225C123.722 31.1225 123.926 30.9188 123.926 30.667C123.926 30.4142 123.722 30.2094 123.47 30.2094C123.218 30.2094 123.015 30.4142 123.015 30.667Z" fill="#171717"/>
<path d="M123.084 21.3687C123.084 21.5835 123.257 21.7553 123.471 21.7553C123.684 21.7553 123.857 21.5835 123.857 21.3687C123.857 21.1551 123.684 20.9822 123.471 20.9822C123.257 20.9822 123.084 21.1551 123.084 21.3687Z" fill="#171717"/>
<path d="M123.163 12.0703C123.163 12.2405 123.301 12.3783 123.471 12.3783C123.64 12.3783 123.778 12.2405 123.778 12.0703C123.778 11.9001 123.64 11.7623 123.471 11.7623C123.301 11.7623 123.163 11.9001 123.163 12.0703Z" fill="#171717"/>
<path d="M123.26 2.7715C123.26 2.88687 123.354 2.98158 123.47 2.98158C123.587 2.98158 123.681 2.88687 123.681 2.7715C123.681 2.65492 123.587 2.5602 123.47 2.5602C123.354 2.5602 123.26 2.65492 123.26 2.7715Z" fill="#171717"/>
<path d="M130.348 198.038C130.348 198.138 130.429 198.22 130.53 198.22C130.63 198.22 130.71 198.138 130.71 198.038C130.71 197.938 130.63 197.856 130.53 197.856C130.429 197.856 130.348 197.938 130.348 198.038Z" fill="#171717"/>
<path d="M130.286 188.74C130.286 188.874 130.395 188.984 130.53 188.984C130.664 188.984 130.773 188.874 130.773 188.74C130.773 188.605 130.664 188.496 130.53 188.496C130.395 188.496 130.286 188.605 130.286 188.74Z" fill="#171717"/>
<path d="M130.236 179.441C130.236 179.604 130.367 179.735 130.53 179.735C130.691 179.735 130.823 179.604 130.823 179.441C130.823 179.279 130.691 179.147 130.53 179.147C130.367 179.147 130.236 179.279 130.236 179.441Z" fill="#171717"/>
<path d="M130.19 170.143C130.19 170.33 130.342 170.482 130.53 170.482C130.717 170.482 130.868 170.33 130.868 170.143C130.868 169.955 130.717 169.803 130.53 169.803C130.342 169.803 130.19 169.955 130.19 170.143Z" fill="#171717"/>
<path d="M130.155 160.845C130.155 161.052 130.323 161.22 130.53 161.22C130.737 161.22 130.904 161.052 130.904 160.845C130.904 160.637 130.737 160.469 130.53 160.469C130.323 160.469 130.155 160.637 130.155 160.845Z" fill="#171717"/>
<path d="M130.128 151.546C130.128 151.768 130.307 151.948 130.53 151.948C130.751 151.948 130.931 151.768 130.931 151.546C130.931 151.324 130.751 151.144 130.53 151.144C130.307 151.144 130.128 151.324 130.128 151.546Z" fill="#171717"/>
<path d="M130.103 142.248C130.103 142.484 130.294 142.675 130.53 142.675C130.765 142.675 130.955 142.484 130.955 142.248C130.955 142.012 130.765 141.821 130.53 141.821C130.294 141.821 130.103 142.012 130.103 142.248Z" fill="#171717"/>
<path d="M130.089 132.949C130.089 133.193 130.286 133.391 130.53 133.391C130.773 133.391 130.97 133.193 130.97 132.949C130.97 132.705 130.773 132.508 130.53 132.508C130.286 132.508 130.089 132.705 130.089 132.949Z" fill="#171717"/>
<path d="M130.074 123.651C130.074 123.903 130.278 124.107 130.53 124.107C130.781 124.107 130.984 123.903 130.984 123.651C130.984 123.399 130.781 123.195 130.53 123.195C130.278 123.195 130.074 123.399 130.074 123.651Z" fill="#171717"/>
<path d="M130.07 114.353C130.07 114.607 130.276 114.813 130.53 114.813C130.783 114.813 130.989 114.607 130.989 114.353C130.989 114.098 130.783 113.892 130.53 113.892C130.276 113.892 130.07 114.098 130.07 114.353Z" fill="#171717"/>
<path d="M130.066 105.055C130.066 105.311 130.274 105.518 130.53 105.518C130.786 105.518 130.992 105.311 130.992 105.055C130.992 104.797 130.786 104.59 130.53 104.59C130.274 104.59 130.066 104.797 130.066 105.055Z" fill="#171717"/>
<path d="M130.068 95.7555C130.068 96.0109 130.275 96.2182 130.53 96.2182C130.784 96.2182 130.991 96.0109 130.991 95.7555C130.991 95.5 130.784 95.2936 130.53 95.2936C130.275 95.2936 130.068 95.5 130.068 95.7555Z" fill="#171717"/>
<path d="M130.075 86.4573C130.075 86.7091 130.278 86.9127 130.53 86.9127C130.78 86.9127 130.983 86.7091 130.983 86.4573C130.983 86.2064 130.78 86.0018 130.53 86.0018C130.278 86.0018 130.075 86.2064 130.075 86.4573Z" fill="#171717"/>
<path d="M130.083 77.1591C130.083 77.4055 130.283 77.6055 130.53 77.6055C130.776 77.6055 130.975 77.4055 130.975 77.1591C130.975 76.9118 130.776 76.7118 130.53 76.7118C130.283 76.7118 130.083 76.9118 130.083 77.1591Z" fill="#171717"/>
<path d="M130.102 67.8609C130.102 68.0973 130.293 68.2891 130.53 68.2891C130.766 68.2891 130.957 68.0973 130.957 67.8609C130.957 67.6236 130.766 67.4318 130.53 67.4318C130.293 67.4318 130.102 67.6236 130.102 67.8609Z" fill="#171717"/>
<path d="M130.12 58.5618C130.12 58.7891 130.303 58.9727 130.53 58.9727C130.756 58.9727 130.94 58.7891 130.94 58.5618C130.94 58.3354 130.756 58.1509 130.53 58.1509C130.303 58.1509 130.12 58.3354 130.12 58.5618Z" fill="#171717"/>
<path d="M130.148 49.2627C130.148 49.4738 130.318 49.6459 130.53 49.6459C130.74 49.6459 130.911 49.4738 130.911 49.2627C130.911 49.0524 130.74 48.8804 130.53 48.8804C130.318 48.8804 130.148 49.0524 130.148 49.2627Z" fill="#171717"/>
<path d="M130.179 39.9645C130.179 40.1599 130.335 40.3168 130.53 40.3168C130.723 40.3168 130.881 40.1599 130.881 39.9645C130.881 39.77 130.723 39.6131 130.53 39.6131C130.335 39.6131 130.179 39.77 130.179 39.9645Z" fill="#171717"/>
<path d="M130.218 30.6678C130.218 30.8401 130.357 30.9799 130.53 30.9799C130.702 30.9799 130.842 30.8401 130.842 30.6678C130.842 30.4945 130.702 30.3547 130.53 30.3547C130.357 30.3547 130.218 30.4945 130.218 30.6678Z" fill="#171717"/>
<path d="M130.267 21.3693C130.267 21.5157 130.384 21.6324 130.53 21.6324C130.675 21.6324 130.793 21.5157 130.793 21.3693C130.793 21.2229 130.675 21.1052 130.53 21.1052C130.384 21.1052 130.267 21.2229 130.267 21.3693Z" fill="#171717"/>
<path d="M130.319 12.0696C130.319 12.1865 130.414 12.2802 130.53 12.2802C130.645 12.2802 130.739 12.1865 130.739 12.0696C130.739 11.955 130.645 11.8601 130.53 11.8601C130.414 11.8601 130.319 11.955 130.319 12.0696Z" fill="#171717"/>
<path d="M130.386 2.77133C130.386 2.85145 130.45 2.91579 130.53 2.91579C130.609 2.91579 130.674 2.85145 130.674 2.77133C130.674 2.69121 130.609 2.62687 130.53 2.62687C130.45 2.62687 130.386 2.69121 130.386 2.77133Z" fill="#171717"/>
</g>
<defs>
<clipPath id="clip0_4_8">
<rect width="200" height="133" fill="white" transform="translate(0.5 200.5) rotate(-90)"/>
</clipPath>
</defs>
</svg>
