<svg width="393" height="283" viewBox="0 0 393 283" fill="none" xmlns="http://www.w3.org/2000/svg">
<path d="M252.213 65.4762C203.164 60.7142 186.721 21.4286 184.631 14.8809C182.541 8.33332 180.451 0 180.451 0L392.951 1.47592e-05V57.7381V225C330.942 201.786 331.639 169.643 334.426 127.381C337.213 85.119 313.524 71.4285 252.213 65.4762Z" fill="white" fill-opacity="0.1"/>
<path d="M159.684 254.252C166.363 278.786 156.473 265.185 156.473 274.155C156.473 283.124 145.945 283 145.945 283L1.52588e-05 283L0.252902 140C24.5168 150.134 73.2247 143.015 100.325 179.972C132.527 223.886 149.248 215.923 159.684 254.252Z" fill="white" fill-opacity="0.1"/>
</svg>
