<svg width="904" height="258" viewBox="0 0 904 258" fill="none" xmlns="http://www.w3.org/2000/svg">
<g filter="url(#filter0_d_0_5122)">
<rect x="11" y="20.7666" width="189.924" height="213.664" rx="33.915" transform="rotate(-6 11 20.7666)" fill="url(#paint0_linear_0_5122)"/>
</g>
<rect x="13.4814" y="44.3771" width="189.924" height="189.924" rx="33.915" transform="rotate(-6 13.4814 44.3771)" fill="url(#paint1_linear_0_5122)"/>
<rect x="11" y="20.7666" width="189.924" height="189.924" rx="33.915" transform="rotate(-6 11 20.7666)" fill="white"/>
<rect x="14.7278" y="23.7851" width="183.141" height="183.141" rx="33.915" transform="rotate(-6 14.7278 23.7851)" fill="#F3F7FF"/>
<path d="M23.5898 108.108L205.727 88.9646L212.463 153.05C214.421 171.678 200.907 188.366 182.279 190.324L67.5998 202.378C48.9717 204.335 32.2834 190.822 30.3255 172.193L23.5898 108.108Z" fill="#E6EDFA"/>
<path d="M127.819 153.131C119.87 153.966 112.51 152.83 105.738 149.722C98.9577 146.536 93.4101 141.828 89.095 135.597C84.7799 129.367 82.2046 122.277 81.3692 114.328C80.5668 106.694 81.6407 99.4995 84.591 92.7442C87.6199 85.9806 92.2061 80.406 98.3496 76.0205C104.493 71.635 111.736 69.0038 120.078 68.127C124.643 67.6472 129.104 67.6956 133.461 68.272C137.898 68.8402 141.946 69.8867 145.608 71.4116L139.739 90.5286C134.156 88.8874 129.043 88.3108 124.399 88.7989C118.339 89.4358 113.863 91.8955 110.972 96.178C108.071 100.382 106.952 105.632 107.614 111.928C108.044 116.02 109.181 119.641 111.023 122.789C112.858 125.859 115.212 128.197 118.087 129.805C121.04 131.404 124.248 132.022 127.71 131.658C129.599 131.459 131.157 131.136 132.383 130.689L130.385 111.683L150.56 107.175L154.444 144.126C145.981 149.153 137.106 152.154 127.819 153.131Z" fill="#5E34B9"/>
<g filter="url(#filter1_d_0_5122)">
<rect x="239.175" y="14.1625" width="189.924" height="213.664" rx="33.915" transform="rotate(-4 239.175 14.1625)" fill="url(#paint2_linear_0_5122)"/>
</g>
<rect x="240.831" y="37.8453" width="189.924" height="189.924" rx="33.915" transform="rotate(-4 240.831 37.8453)" fill="url(#paint3_linear_0_5122)"/>
<rect x="239.175" y="14.1625" width="189.924" height="189.924" rx="33.915" transform="rotate(-4 239.175 14.1625)" fill="white"/>
<rect x="242.795" y="17.3091" width="183.141" height="183.141" rx="33.915" transform="rotate(-4 242.795 17.3091)" fill="#F3F7FF"/>
<path d="M248.709 101.89L431.404 89.1148L435.899 153.396C437.206 172.081 423.117 188.288 404.432 189.594L289.402 197.638C270.717 198.945 254.511 184.857 253.204 166.171L248.709 101.89Z" fill="#E6EDFA"/>
<path d="M323.165 65.6108L359.163 63.0936L388.424 142.914L360.597 144.86L356.425 129.445L335.348 130.919L333.007 146.789L306.364 148.652L323.165 65.6108ZM352.565 115.079L342.376 79.9745L336.816 116.18L352.565 115.079Z" fill="#5E34B9"/>
<g filter="url(#filter2_d_0_5122)">
<rect x="475.402" y="0.914124" width="189.924" height="213.664" rx="33.915" transform="rotate(4 475.402 0.914124)" fill="url(#paint4_linear_0_5122)"/>
</g>
<rect x="473.747" y="24.5969" width="189.924" height="189.924" rx="33.915" transform="rotate(4 473.747 24.5969)" fill="url(#paint5_linear_0_5122)"/>
<rect x="475.402" y="0.914124" width="189.924" height="189.924" rx="33.915" transform="rotate(4 475.402 0.914124)" fill="white"/>
<rect x="478.549" y="4.53394" width="183.141" height="183.141" rx="33.915" transform="rotate(4 478.549 4.53394)" fill="#F3F7FF"/>
<path d="M472.635 89.1148L655.33 101.89L650.835 166.172C649.528 184.857 633.322 198.945 614.637 197.638L499.607 189.594C480.922 188.288 466.834 172.081 468.14 153.396L472.635 89.1148Z" fill="#E6EDFA"/>
<path d="M521.383 85.1835L546.012 86.9058L563.614 127.88L586.273 89.7211L610.903 91.4434L605.206 172.912L580.576 171.189L583.615 127.732L566.589 155.099L556.524 154.395L543.355 124.916L540.316 168.374L515.686 166.652L521.383 85.1835Z" fill="#5E34B9"/>
<g filter="url(#filter3_d_0_5122)">
<rect x="704.155" y="0.914124" width="189.924" height="213.664" rx="33.915" transform="rotate(6 704.155 0.914124)" fill="url(#paint6_linear_0_5122)"/>
</g>
<rect x="701.673" y="24.5246" width="189.924" height="189.924" rx="33.915" transform="rotate(6 701.673 24.5246)" fill="url(#paint7_linear_0_5122)"/>
<rect x="704.155" y="0.914124" width="189.924" height="189.924" rx="33.915" transform="rotate(6 704.155 0.914124)" fill="white"/>
<rect x="707.174" y="4.6416" width="183.141" height="183.141" rx="33.915" transform="rotate(6 707.174 4.6416)" fill="#F3F7FF"/>
<path d="M698.311 88.9645L880.449 108.108L873.713 172.193C871.755 190.822 855.067 204.335 836.439 202.377L721.76 190.324C703.131 188.366 689.617 171.678 691.575 153.05L698.311 88.9645Z" fill="#E6EDFA"/>
<path d="M763.308 64.6288L820.328 70.6218L818.442 88.5657L790.109 85.5879L788.558 100.344L814.412 103.062L812.848 117.936L786.995 115.219L785.345 130.92L813.677 133.898L811.791 151.842L754.772 145.849L763.308 64.6288Z" fill="#5E34B9"/>
<defs>
<filter id="filter0_d_0_5122" x="0.790456" y="4.27069" width="231.636" height="252.765" filterUnits="userSpaceOnUse" color-interpolation-filters="sRGB">
<feFlood flood-opacity="0" result="BackgroundImageFix"/>
<feColorMatrix in="SourceAlpha" type="matrix" values="0 0 0 0 0 0 0 0 0 0 0 0 0 0 0 0 0 0 127 0" result="hardAlpha"/>
<feOffset dy="13.566"/>
<feGaussianBlur stdDeviation="6.78299"/>
<feComposite in2="hardAlpha" operator="out"/>
<feColorMatrix type="matrix" values="0 0 0 0 0.413021 0 0 0 0 0.53004 0 0 0 0 0.8125 0 0 0 1 0"/>
<feBlend mode="normal" in2="BackgroundImageFix" result="effect1_dropShadow_0_5122"/>
<feBlend mode="normal" in="SourceGraphic" in2="effect1_dropShadow_0_5122" result="shape"/>
</filter>
<filter id="filter1_d_0_5122" x="227.891" y="3.19586" width="226.934" height="248.961" filterUnits="userSpaceOnUse" color-interpolation-filters="sRGB">
<feFlood flood-opacity="0" result="BackgroundImageFix"/>
<feColorMatrix in="SourceAlpha" type="matrix" values="0 0 0 0 0 0 0 0 0 0 0 0 0 0 0 0 0 0 127 0" result="hardAlpha"/>
<feOffset dy="13.566"/>
<feGaussianBlur stdDeviation="6.78299"/>
<feComposite in2="hardAlpha" operator="out"/>
<feColorMatrix type="matrix" values="0 0 0 0 0.413021 0 0 0 0 0.53004 0 0 0 0 0.8125 0 0 0 1 0"/>
<feBlend mode="normal" in2="BackgroundImageFix" result="effect1_dropShadow_0_5122"/>
<feBlend mode="normal" in="SourceGraphic" in2="effect1_dropShadow_0_5122" result="shape"/>
</filter>
<filter id="filter2_d_0_5122" x="449.214" y="3.19592" width="226.934" height="248.961" filterUnits="userSpaceOnUse" color-interpolation-filters="sRGB">
<feFlood flood-opacity="0" result="BackgroundImageFix"/>
<feColorMatrix in="SourceAlpha" type="matrix" values="0 0 0 0 0 0 0 0 0 0 0 0 0 0 0 0 0 0 127 0" result="hardAlpha"/>
<feOffset dy="13.566"/>
<feGaussianBlur stdDeviation="6.78299"/>
<feComposite in2="hardAlpha" operator="out"/>
<feColorMatrix type="matrix" values="0 0 0 0 0.413021 0 0 0 0 0.53004 0 0 0 0 0.8125 0 0 0 1 0"/>
<feBlend mode="normal" in2="BackgroundImageFix" result="effect1_dropShadow_0_5122"/>
<feBlend mode="normal" in="SourceGraphic" in2="effect1_dropShadow_0_5122" result="shape"/>
</filter>
<filter id="filter3_d_0_5122" x="671.612" y="4.27069" width="231.636" height="252.765" filterUnits="userSpaceOnUse" color-interpolation-filters="sRGB">
<feFlood flood-opacity="0" result="BackgroundImageFix"/>
<feColorMatrix in="SourceAlpha" type="matrix" values="0 0 0 0 0 0 0 0 0 0 0 0 0 0 0 0 0 0 127 0" result="hardAlpha"/>
<feOffset dy="13.566"/>
<feGaussianBlur stdDeviation="6.78299"/>
<feComposite in2="hardAlpha" operator="out"/>
<feColorMatrix type="matrix" values="0 0 0 0 0.413021 0 0 0 0 0.53004 0 0 0 0 0.8125 0 0 0 1 0"/>
<feBlend mode="normal" in2="BackgroundImageFix" result="effect1_dropShadow_0_5122"/>
<feBlend mode="normal" in="SourceGraphic" in2="effect1_dropShadow_0_5122" result="shape"/>
</filter>
<linearGradient id="paint0_linear_0_5122" x1="105.962" y1="20.7666" x2="105.962" y2="234.431" gradientUnits="userSpaceOnUse">
<stop offset="0.822917" stop-color="white"/>
<stop offset="1" stop-color="#B1C7FB"/>
</linearGradient>
<linearGradient id="paint1_linear_0_5122" x1="108.443" y1="44.3771" x2="108.443" y2="234.301" gradientUnits="userSpaceOnUse">
<stop offset="0.822917" stop-color="white"/>
<stop offset="1" stop-color="#B1C7FB"/>
</linearGradient>
<linearGradient id="paint2_linear_0_5122" x1="334.137" y1="14.1625" x2="334.137" y2="227.827" gradientUnits="userSpaceOnUse">
<stop offset="0.822917" stop-color="white"/>
<stop offset="1" stop-color="#B1C7FB"/>
</linearGradient>
<linearGradient id="paint3_linear_0_5122" x1="335.793" y1="37.8453" x2="335.793" y2="227.769" gradientUnits="userSpaceOnUse">
<stop offset="0.822917" stop-color="white"/>
<stop offset="1" stop-color="#B1C7FB"/>
</linearGradient>
<linearGradient id="paint4_linear_0_5122" x1="570.364" y1="0.914124" x2="570.364" y2="214.578" gradientUnits="userSpaceOnUse">
<stop offset="0.822917" stop-color="white"/>
<stop offset="1" stop-color="#B1C7FB"/>
</linearGradient>
<linearGradient id="paint5_linear_0_5122" x1="568.709" y1="24.5969" x2="568.709" y2="214.521" gradientUnits="userSpaceOnUse">
<stop offset="0.822917" stop-color="white"/>
<stop offset="1" stop-color="#B1C7FB"/>
</linearGradient>
<linearGradient id="paint6_linear_0_5122" x1="799.117" y1="0.914124" x2="799.117" y2="214.578" gradientUnits="userSpaceOnUse">
<stop offset="0.822917" stop-color="white"/>
<stop offset="1" stop-color="#B1C7FB"/>
</linearGradient>
<linearGradient id="paint7_linear_0_5122" x1="796.635" y1="24.5246" x2="796.635" y2="214.448" gradientUnits="userSpaceOnUse">
<stop offset="0.822917" stop-color="white"/>
<stop offset="1" stop-color="#B1C7FB"/>
</linearGradient>
</defs>
</svg>
