<svg width="784" height="666" viewBox="0 0 784 666" fill="none" xmlns="http://www.w3.org/2000/svg">
<g opacity="0.2" clip-path="url(#clip0_1_3005)">
<path d="M-216 0H-170.06L-58.24 82.02L284.04 333.02L50.97 634.42L26.57 666H-37.65L8.58 618.13L284.03 333.02L660.85 560.94L784 635.44V666H738.12L626.24 583.98L284.03 333.02L-168.58 488.21L-216 504.49V547.22L-144.12 516.43L284.03 333.02L-168.58 177.79L-216 161.55V118.78L-144.12 149.57L284.03 333.02L439.23 10.12L444.1 0H392.52L391.99 1.7L284.03 333.02L736.58 488.21L784 504.49V547.22L712.13 516.43L284.03 333.02L736.58 177.79L784 161.55V118.78L712.13 149.57L284.03 333.02L-213.45 261.08L-216 260.72V226.37L-200.8 229.61L284.03 333.01L517.04 31.58L541.49 0H605.65L559.42 47.87L284.03 333.02L781.51 404.92L784 405.28V439.63L768.81 436.39L284.03 333.02L-92.85 560.94L-216 635.44V666H-170.06L-58.24 583.98L284.04 333.02L-216 349.03V316.97L284.03 333.02L308.07 0H259.94L284.04 333.02L784 316.97V349.03L284.03 333.02L660.85 105.06L784 30.59V0H738.12L626.25 82.02L284.03 333.02L-200.8 436.38L-216 439.63V405.28L-213.45 404.92L284.03 333.02L439.23 655.88L444.1 666H392.52L391.99 664.34L284.03 333.02L8.58 47.87L-37.65 0H26.57L50.96 31.58L284.03 333.02L128.77 655.88L123.9 666H175.48L176.01 664.34L284.03 333.02L559.42 618.13L605.65 666H541.49L517.04 634.42L284.03 333.02L781.51 261.08L784 260.72V226.37L768.81 229.61L284.03 333.01L-92.85 105.06L-216 30.59V0ZM123.9 0H175.48L176.01 1.7L284.03 333.02L308.07 666H259.94L284.04 333.02L128.77 10.12L123.9 0Z" fill="url(#paint0_radial_1_3005)"/>
</g>
<defs>
<radialGradient id="paint0_radial_1_3005" cx="0" cy="0" r="1" gradientUnits="userSpaceOnUse" gradientTransform="translate(284.009 333) scale(500.01 333)">
<stop stop-color="white"/>
<stop offset="0.8648" stop-color="white" stop-opacity="0.2216"/>
<stop offset="1" stop-color="white" stop-opacity="0.1"/>
</radialGradient>
<clipPath id="clip0_1_3005">
<rect width="1000" height="666" fill="white" transform="translate(-216)"/>
</clipPath>
</defs>
</svg>
