<svg width="444" height="434" viewBox="0 0 444 434" fill="none" xmlns="http://www.w3.org/2000/svg">
<g clip-path="url(#clip0_1_2)">
<path d="M131.516 359.85C128.904 340.882 125.66 322.142 121.43 303.528C113.416 268.267 91.7593 247.564 56.768 239.773C40.4398 236.137 24.031 233.132 7.4807 230.808C5.583 230.542 3.6931 230.22 0 229.643C19.3475 226.822 36.7579 223.714 54.1295 220.248C93.2049 212.451 115.347 188.725 122.92 150.133C126.195 133.445 129.324 116.753 132.154 99.7402C132.972 105.167 133.794 110.594 134.609 116.021C136.644 129.569 139.449 142.951 142.495 156.316C150.398 190.978 171.758 211.491 206.207 219.356C224.701 223.579 243.352 226.713 262.902 229.463C247.61 232.123 233.087 234.452 218.648 237.217C203.811 240.059 189.323 244.131 176.168 251.893C157.135 263.123 148.439 281.341 142.928 301.607C138.019 319.653 135.177 338.096 132.709 356.603C132.563 357.694 133.094 359.081 131.516 359.85Z" fill="#2b7fff"/>
<path d="M443.459 141.616C422.346 144.474 402.944 147.749 383.756 152.451C350.52 160.594 330.726 181.395 322.86 214.459C318.402 233.199 315.265 252.134 312.325 273.189C310.545 261.958 309.112 252.66 307.592 243.376C305.547 230.889 302.703 218.593 299.178 206.427C290.329 175.876 269.005 159.382 239.111 152.061C220.518 147.508 201.701 144.34 182.626 141.115C190.036 139.986 197.468 138.98 204.853 137.704C223.845 134.424 242.84 131.2 260.6 123.107C283.953 112.467 295.001 92.6948 301.251 69.2013C305.905 51.7061 308.69 33.8703 311.211 15.9804C311.416 14.5275 311.713 13.0875 312.304 9.7258C315.056 28.9362 318.205 46.0947 321.538 63.2386C329.534 104.37 355.221 126.111 395.325 133.236C410.148 135.869 424.916 138.771 439.862 140.642C440.559 140.73 441.232 141.005 443.459 141.616Z" fill="#2b7fff"/>
<path d="M172.616 340.602C182.72 338.821 192.855 336.726 203.082 335.287C238.056 330.368 255.126 308.827 259.625 275.248C260.743 266.905 262.342 258.626 264.031 248.444C265.421 256.973 266.488 263.778 267.647 270.567C269.321 280.371 271.595 290.016 274.951 299.41C281.905 318.878 296.979 328.355 315.964 333.141C327.514 336.053 339.211 338.154 351.026 339.634C352.458 339.813 353.864 340.203 355.589 340.558C344.513 342.581 333.914 344.77 323.232 346.421C291.625 351.305 274.395 370.112 269.442 401.15C267.841 411.18 265.954 421.164 263.871 433.026C261.954 419.225 259.695 407.369 257.346 395.52C251.715 367.105 234.046 351.7 206.24 346.697C195.031 344.68 183.826 342.635 172.616 340.602Z" fill="#2b7fff"/>
<path d="M195.467 122.012C193.706 112.86 192.209 105.522 190.894 98.1523C187.365 78.3737 175.017 67.8436 155.79 64.4408C148.864 63.2151 141.942 61.9696 133.469 60.4564C144.397 58.7314 153.771 57.2697 162.964 54.7497C177.454 50.7774 186.108 41.4518 189.87 27.1175C192.147 18.4392 193.545 9.59649 195.814 9.15527e-05C195.815 40.317 216.169 59.8162 255.549 60.7763C253.374 61.1277 251.197 61.467 249.025 61.8336C246.649 62.2346 244.266 62.6068 241.905 63.0842C209.723 69.5914 201.518 78.3797 197.1 111.008C196.682 114.096 196.187 117.174 195.467 122.012Z" fill="#2b7fff"/>
<path d="M31.5367 97.5445C48.6315 97.0107 57.2201 88.4689 57.5837 71.4781C62.6444 92.7188 63.9218 93.9829 84.0999 97.7394C67.5508 98.3188 58.3463 106.209 57.9476 123.799C57.1934 106.68 48.6798 98.027 31.5367 97.5445Z" fill="#2b7fff"/>
<path d="M365.111 261.327C381.985 260.643 390.003 251.999 390.883 235.486C391.694 252.381 400.189 260.714 417.081 261.31C400.651 262.196 391.413 269.874 390.951 287.267C390.187 270.415 381.636 262.059 365.111 261.327Z" fill="#2b7fff"/>
</g>
<defs>
<clipPath id="clip0_1_2">
<rect width="443.459" height="433.026" fill="white"/>
</clipPath>
</defs>
</svg>
